<?xml version="1.0" encoding="utf-8" standalone="no"?>
<!DOCTYPE svg PUBLIC "-//W3C//DTD SVG 1.1//EN"
  "http://www.w3.org/Graphics/SVG/1.1/DTD/svg11.dtd">
<!-- Created with matplotlib (https://matplotlib.org/) -->
<svg height="1080pt" version="1.1" viewBox="0 0 2160 1080" width="2160pt" xmlns="http://www.w3.org/2000/svg" xmlns:xlink="http://www.w3.org/1999/xlink">
 <metadata>
  <rdf:RDF xmlns:cc="http://creativecommons.org/ns#" xmlns:dc="http://purl.org/dc/elements/1.1/" xmlns:rdf="http://www.w3.org/1999/02/22-rdf-syntax-ns#">
   <cc:Work>
    <dc:type rdf:resource="http://purl.org/dc/dcmitype/StillImage"/>
    <dc:date>2022-06-14T10:40:48.061104</dc:date>
    <dc:format>image/svg+xml</dc:format>
    <dc:creator>
     <cc:Agent>
      <dc:title>Matplotlib v3.3.4, https://matplotlib.org/</dc:title>
     </cc:Agent>
    </dc:creator>
   </cc:Work>
  </rdf:RDF>
 </metadata>
 <defs>
  <style type="text/css">*{stroke-linecap:butt;stroke-linejoin:round;}</style>
 </defs>
 <g id="figure_1">
  <g id="patch_1">
   <path d="M 0 1080 
L 2160 1080 
L 2160 0 
L 0 0 
z
" style="fill:none;"/>
  </g>
  <g id="patch_2">
   <path d="M 699.3 945 
L 1514.7 945 
L 1514.7 129.6 
L 699.3 129.6 
z
" style="fill:#ffffff;"/>
  </g>
  <g id="pane3d_1">
   <g id="patch_3">
    <path d="M 896.345089 607.787663 
L 1384.615516 623.204188 
L 1392.47702 268.966969 
L 889.869255 256.404109 
" style="fill:#f2f2f2;opacity:0.5;stroke:#f2f2f2;stroke-linejoin:miter;stroke-width:0.3;"/>
   </g>
  </g>
  <g id="pane3d_2">
   <g id="patch_4">
    <path d="M 896.345089 607.787663 
L 823.311322 802.579807 
L 813.67455 415.6345 
L 889.869255 256.404109 
" style="fill:#e6e6e6;opacity:0.5;stroke:#e6e6e6;stroke-linejoin:miter;stroke-width:0.3;"/>
   </g>
  </g>
  <g id="pane3d_3">
   <g id="patch_5">
    <path d="M 896.345089 607.787663 
L 823.311322 802.579807 
L 1367.833487 821.785348 
L 1384.615516 623.204188 
" style="fill:#ececec;opacity:0.5;stroke:#ececec;stroke-linejoin:miter;stroke-width:0.3;"/>
   </g>
  </g>
  <g id="axis3d_1">
   <g id="line2d_1">
    <path d="M 1384.615516 623.204188 
L 1367.833487 821.785348 
" style="fill:none;stroke:#000000;stroke-linecap:square;stroke-width:0.8;"/>
   </g>
   <g id="text_1">
    <!-- East Direction (m) -->
    <g transform="translate(1405.682117 795.136741)rotate(-85.169431)scale(0.15 -0.15)">
     <defs>
      <path d="M 20.90625 62.59375 
L 20.90625 36.421875 
L 35.453125 36.421875 
Q 41.109375 36.421875 43.015625 38.140625 
Q 45.5625 40.375 45.84375 46.046875 
L 47.65625 46.046875 
L 47.65625 23 
L 45.84375 23 
Q 45.171875 27.828125 44.484375 29.203125 
Q 43.609375 30.90625 41.59375 31.875 
Q 39.59375 32.859375 35.453125 32.859375 
L 20.90625 32.859375 
L 20.90625 11.03125 
Q 20.90625 6.640625 21.296875 5.6875 
Q 21.6875 4.734375 22.65625 4.171875 
Q 23.640625 3.609375 26.375 3.609375 
L 37.59375 3.609375 
Q 43.21875 3.609375 45.75 4.390625 
Q 48.296875 5.171875 50.640625 7.46875 
Q 53.65625 10.5 56.84375 16.609375 
L 58.796875 16.609375 
L 53.078125 0 
L 2.046875 0 
L 2.046875 1.8125 
L 4.390625 1.8125 
Q 6.734375 1.8125 8.84375 2.9375 
Q 10.40625 3.71875 10.96875 5.28125 
Q 11.53125 6.84375 11.53125 11.671875 
L 11.53125 54.6875 
Q 11.53125 60.984375 10.25 62.453125 
Q 8.5 64.40625 4.390625 64.40625 
L 2.046875 64.40625 
L 2.046875 66.21875 
L 53.078125 66.21875 
L 53.8125 51.703125 
L 51.90625 51.703125 
Q 50.875 56.9375 49.625 58.890625 
Q 48.390625 60.84375 45.953125 61.859375 
Q 44 62.59375 39.0625 62.59375 
z
" id="TimesNewRomanPSMT-69"/>
      <path d="M 28.46875 6.453125 
Q 21.578125 1.125 19.828125 0.296875 
Q 17.1875 -0.921875 14.203125 -0.921875 
Q 9.578125 -0.921875 6.5625 2.25 
Q 3.5625 5.421875 3.5625 10.59375 
Q 3.5625 13.875 5.03125 16.265625 
Q 7.03125 19.578125 11.984375 22.5 
Q 16.9375 25.4375 28.46875 29.640625 
L 28.46875 31.390625 
Q 28.46875 38.09375 26.34375 40.578125 
Q 24.21875 43.0625 20.171875 43.0625 
Q 17.09375 43.0625 15.28125 41.40625 
Q 13.421875 39.75 13.421875 37.59375 
L 13.53125 34.765625 
Q 13.53125 32.515625 12.375 31.296875 
Q 11.234375 30.078125 9.375 30.078125 
Q 7.5625 30.078125 6.421875 31.34375 
Q 5.28125 32.625 5.28125 34.8125 
Q 5.28125 39.015625 9.578125 42.53125 
Q 13.875 46.046875 21.625 46.046875 
Q 27.59375 46.046875 31.390625 44.046875 
Q 34.28125 42.53125 35.640625 39.3125 
Q 36.53125 37.203125 36.53125 30.71875 
L 36.53125 15.53125 
Q 36.53125 9.125 36.765625 7.6875 
Q 37.015625 6.25 37.578125 5.765625 
Q 38.140625 5.28125 38.875 5.28125 
Q 39.65625 5.28125 40.234375 5.609375 
Q 41.265625 6.25 44.1875 9.1875 
L 44.1875 6.453125 
Q 38.71875 -0.875 33.734375 -0.875 
Q 31.34375 -0.875 29.921875 0.78125 
Q 28.515625 2.4375 28.46875 6.453125 
z
M 28.46875 9.625 
L 28.46875 26.65625 
Q 21.09375 23.734375 18.953125 22.515625 
Q 15.09375 20.359375 13.421875 18.015625 
Q 11.765625 15.671875 11.765625 12.890625 
Q 11.765625 9.375 13.859375 7.046875 
Q 15.96875 4.734375 18.703125 4.734375 
Q 22.40625 4.734375 28.46875 9.625 
z
" id="TimesNewRomanPSMT-97"/>
      <path d="M 32.03125 46.046875 
L 32.03125 30.8125 
L 30.421875 30.8125 
Q 28.5625 37.984375 25.65625 40.578125 
Q 22.75 43.171875 18.265625 43.171875 
Q 14.84375 43.171875 12.734375 41.359375 
Q 10.640625 39.546875 10.640625 37.359375 
Q 10.640625 34.625 12.203125 32.671875 
Q 13.71875 30.671875 18.359375 28.421875 
L 25.484375 24.953125 
Q 35.40625 20.125 35.40625 12.203125 
Q 35.40625 6.109375 30.78125 2.359375 
Q 26.171875 -1.375 20.453125 -1.375 
Q 16.359375 -1.375 11.078125 0.09375 
Q 9.46875 0.59375 8.453125 0.59375 
Q 7.328125 0.59375 6.6875 -0.6875 
L 5.078125 -0.6875 
L 5.078125 15.28125 
L 6.6875 15.28125 
Q 8.0625 8.453125 11.90625 4.984375 
Q 15.765625 1.515625 20.5625 1.515625 
Q 23.921875 1.515625 26.046875 3.484375 
Q 28.171875 5.46875 28.171875 8.25 
Q 28.171875 11.625 25.796875 13.921875 
Q 23.4375 16.21875 16.359375 19.734375 
Q 9.28125 23.25 7.078125 26.078125 
Q 4.890625 28.859375 4.890625 33.109375 
Q 4.890625 38.625 8.671875 42.328125 
Q 12.453125 46.046875 18.453125 46.046875 
Q 21.09375 46.046875 24.859375 44.921875 
Q 27.34375 44.1875 28.171875 44.1875 
Q 28.953125 44.1875 29.390625 44.53125 
Q 29.828125 44.875 30.421875 46.046875 
z
" id="TimesNewRomanPSMT-115"/>
      <path d="M 16.109375 59.421875 
L 16.109375 44.734375 
L 26.5625 44.734375 
L 26.5625 41.3125 
L 16.109375 41.3125 
L 16.109375 12.3125 
Q 16.109375 7.953125 17.359375 6.4375 
Q 18.609375 4.9375 20.5625 4.9375 
Q 22.171875 4.9375 23.6875 5.9375 
Q 25.203125 6.9375 26.03125 8.890625 
L 27.9375 8.890625 
Q 26.21875 4.109375 23.09375 1.6875 
Q 19.96875 -0.734375 16.65625 -0.734375 
Q 14.40625 -0.734375 12.25 0.515625 
Q 10.109375 1.765625 9.078125 4.078125 
Q 8.0625 6.390625 8.0625 11.234375 
L 8.0625 41.3125 
L 0.984375 41.3125 
L 0.984375 42.921875 
Q 3.65625 44 6.46875 46.5625 
Q 9.28125 49.125 11.46875 52.640625 
Q 12.59375 54.5 14.59375 59.421875 
z
" id="TimesNewRomanPSMT-116"/>
      <path id="TimesNewRomanPSMT-32"/>
      <path d="M 1.703125 0 
L 1.703125 1.8125 
L 4.203125 1.8125 
Q 8.40625 1.8125 10.15625 4.5 
Q 11.234375 6.109375 11.234375 11.71875 
L 11.234375 54.5 
Q 11.234375 60.6875 9.859375 62.25 
Q 7.953125 64.40625 4.203125 64.40625 
L 1.703125 64.40625 
L 1.703125 66.21875 
L 28.65625 66.21875 
Q 43.5 66.21875 51.234375 62.84375 
Q 58.984375 59.46875 63.6875 51.609375 
Q 68.40625 43.75 68.40625 33.453125 
Q 68.40625 19.625 60.015625 10.359375 
Q 50.59375 0 31.296875 0 
z
M 20.609375 4.78125 
Q 26.8125 3.421875 31 3.421875 
Q 42.328125 3.421875 49.796875 11.375 
Q 57.28125 19.34375 57.28125 32.953125 
Q 57.28125 46.6875 49.796875 54.59375 
Q 42.328125 62.5 30.609375 62.5 
Q 26.21875 62.5 20.609375 61.078125 
z
" id="TimesNewRomanPSMT-68"/>
      <path d="M 14.5 69.4375 
Q 16.546875 69.4375 17.984375 67.984375 
Q 19.4375 66.546875 19.4375 64.5 
Q 19.4375 62.453125 17.984375 60.984375 
Q 16.546875 59.515625 14.5 59.515625 
Q 12.453125 59.515625 10.984375 60.984375 
Q 9.515625 62.453125 9.515625 64.5 
Q 9.515625 66.546875 10.953125 67.984375 
Q 12.40625 69.4375 14.5 69.4375 
z
M 18.5625 46.046875 
L 18.5625 10.109375 
Q 18.5625 5.90625 19.171875 4.515625 
Q 19.78125 3.125 20.96875 2.4375 
Q 22.171875 1.765625 25.34375 1.765625 
L 25.34375 0 
L 3.609375 0 
L 3.609375 1.765625 
Q 6.890625 1.765625 8 2.390625 
Q 9.125 3.03125 9.78125 4.484375 
Q 10.453125 5.953125 10.453125 10.109375 
L 10.453125 27.34375 
Q 10.453125 34.625 10.015625 36.765625 
Q 9.671875 38.328125 8.9375 38.9375 
Q 8.203125 39.546875 6.9375 39.546875 
Q 5.5625 39.546875 3.609375 38.8125 
L 2.9375 40.578125 
L 16.40625 46.046875 
z
" id="TimesNewRomanPSMT-105"/>
      <path d="M 16.21875 46.046875 
L 16.21875 35.984375 
Q 21.828125 46.046875 27.734375 46.046875 
Q 30.421875 46.046875 32.171875 44.40625 
Q 33.9375 42.78125 33.9375 40.625 
Q 33.9375 38.71875 32.65625 37.390625 
Q 31.390625 36.078125 29.640625 36.078125 
Q 27.9375 36.078125 25.8125 37.765625 
Q 23.6875 39.453125 22.65625 39.453125 
Q 21.78125 39.453125 20.75 38.484375 
Q 18.5625 36.46875 16.21875 31.890625 
L 16.21875 10.453125 
Q 16.21875 6.734375 17.140625 4.828125 
Q 17.78125 3.515625 19.390625 2.640625 
Q 21 1.765625 24.03125 1.765625 
L 24.03125 0 
L 1.125 0 
L 1.125 1.765625 
Q 4.546875 1.765625 6.203125 2.828125 
Q 7.421875 3.609375 7.90625 5.328125 
Q 8.15625 6.15625 8.15625 10.0625 
L 8.15625 27.390625 
Q 8.15625 35.203125 7.828125 36.6875 
Q 7.515625 38.1875 6.65625 38.859375 
Q 5.8125 39.546875 4.546875 39.546875 
Q 3.03125 39.546875 1.125 38.8125 
L 0.640625 40.578125 
L 14.15625 46.046875 
z
" id="TimesNewRomanPSMT-114"/>
      <path d="M 10.640625 27.875 
Q 10.59375 17.921875 15.484375 12.25 
Q 20.359375 6.59375 26.953125 6.59375 
Q 31.34375 6.59375 34.59375 9 
Q 37.84375 11.421875 40.046875 17.28125 
L 41.546875 16.3125 
Q 40.53125 9.625 35.59375 4.125 
Q 30.671875 -1.375 23.25 -1.375 
Q 15.1875 -1.375 9.453125 4.90625 
Q 3.71875 11.1875 3.71875 21.78125 
Q 3.71875 33.25 9.59375 39.671875 
Q 15.484375 46.09375 24.359375 46.09375 
Q 31.890625 46.09375 36.71875 41.140625 
Q 41.546875 36.1875 41.546875 27.875 
z
M 10.640625 30.71875 
L 31.34375 30.71875 
Q 31.109375 35.015625 30.328125 36.765625 
Q 29.109375 39.5 26.6875 41.0625 
Q 24.265625 42.625 21.625 42.625 
Q 17.578125 42.625 14.375 39.46875 
Q 11.1875 36.328125 10.640625 30.71875 
z
" id="TimesNewRomanPSMT-101"/>
      <path d="M 41.109375 17 
Q 39.3125 8.15625 34.03125 3.390625 
Q 28.765625 -1.375 22.359375 -1.375 
Q 14.75 -1.375 9.078125 5.015625 
Q 3.421875 11.421875 3.421875 22.3125 
Q 3.421875 32.859375 9.6875 39.453125 
Q 15.96875 46.046875 24.75 46.046875 
Q 31.34375 46.046875 35.59375 42.546875 
Q 39.84375 39.0625 39.84375 35.296875 
Q 39.84375 33.453125 38.640625 32.296875 
Q 37.453125 31.15625 35.296875 31.15625 
Q 32.421875 31.15625 30.953125 33.015625 
Q 30.125 34.03125 29.859375 36.90625 
Q 29.59375 39.796875 27.875 41.3125 
Q 26.171875 42.78125 23.140625 42.78125 
Q 18.265625 42.78125 15.28125 39.15625 
Q 11.328125 34.375 11.328125 26.515625 
Q 11.328125 18.5 15.25 12.375 
Q 19.1875 6.25 25.875 6.25 
Q 30.671875 6.25 34.46875 9.515625 
Q 37.15625 11.765625 39.703125 17.671875 
z
" id="TimesNewRomanPSMT-99"/>
      <path d="M 25 46.046875 
Q 35.15625 46.046875 41.3125 38.328125 
Q 46.53125 31.734375 46.53125 23.1875 
Q 46.53125 17.1875 43.640625 11.03125 
Q 40.765625 4.890625 35.71875 1.75 
Q 30.671875 -1.375 24.46875 -1.375 
Q 14.359375 -1.375 8.40625 6.6875 
Q 3.375 13.484375 3.375 21.921875 
Q 3.375 28.078125 6.421875 34.15625 
Q 9.46875 40.234375 14.453125 43.140625 
Q 19.4375 46.046875 25 46.046875 
z
M 23.484375 42.875 
Q 20.90625 42.875 18.28125 41.328125 
Q 15.671875 39.796875 14.0625 35.9375 
Q 12.453125 32.078125 12.453125 26.03125 
Q 12.453125 16.265625 16.328125 9.171875 
Q 20.21875 2.09375 26.5625 2.09375 
Q 31.296875 2.09375 34.375 6 
Q 37.453125 9.90625 37.453125 19.4375 
Q 37.453125 31.34375 32.328125 38.1875 
Q 28.859375 42.875 23.484375 42.875 
z
" id="TimesNewRomanPSMT-111"/>
      <path d="M 16.15625 36.578125 
Q 24.03125 46.046875 31.15625 46.046875 
Q 34.8125 46.046875 37.453125 44.21875 
Q 40.09375 42.390625 41.65625 38.1875 
Q 42.71875 35.25 42.71875 29.203125 
L 42.71875 10.109375 
Q 42.71875 5.859375 43.40625 4.34375 
Q 43.953125 3.125 45.140625 2.4375 
Q 46.34375 1.765625 49.5625 1.765625 
L 49.5625 0 
L 27.4375 0 
L 27.4375 1.765625 
L 28.375 1.765625 
Q 31.5 1.765625 32.734375 2.703125 
Q 33.984375 3.65625 34.46875 5.515625 
Q 34.671875 6.25 34.671875 10.109375 
L 34.671875 28.421875 
Q 34.671875 34.515625 33.078125 37.28125 
Q 31.5 40.046875 27.734375 40.046875 
Q 21.921875 40.046875 16.15625 33.6875 
L 16.15625 10.109375 
Q 16.15625 5.5625 16.703125 4.5 
Q 17.390625 3.078125 18.578125 2.421875 
Q 19.78125 1.765625 23.4375 1.765625 
L 23.4375 0 
L 1.3125 0 
L 1.3125 1.765625 
L 2.296875 1.765625 
Q 5.71875 1.765625 6.90625 3.484375 
Q 8.109375 5.21875 8.109375 10.109375 
L 8.109375 26.703125 
Q 8.109375 34.765625 7.734375 36.515625 
Q 7.375 38.28125 6.609375 38.90625 
Q 5.859375 39.546875 4.59375 39.546875 
Q 3.21875 39.546875 1.3125 38.8125 
L 0.59375 40.578125 
L 14.0625 46.046875 
L 16.15625 46.046875 
z
" id="TimesNewRomanPSMT-110"/>
      <path d="M 31.0625 -19.578125 
L 31.0625 -21.390625 
Q 23.6875 -17.671875 18.75 -12.703125 
Q 11.71875 -5.609375 7.90625 4 
Q 4.109375 13.625 4.109375 23.96875 
Q 4.109375 39.109375 11.578125 51.578125 
Q 19.046875 64.0625 31.0625 69.4375 
L 31.0625 67.390625 
Q 25.046875 64.0625 21.1875 58.296875 
Q 17.328125 52.546875 15.421875 43.703125 
Q 13.53125 34.859375 13.53125 25.25 
Q 13.53125 14.796875 15.140625 6.25 
Q 16.40625 -0.484375 18.203125 -4.5625 
Q 20.015625 -8.640625 23.0625 -12.390625 
Q 26.125 -16.15625 31.0625 -19.578125 
z
" id="TimesNewRomanPSMT-40"/>
      <path d="M 16.40625 36.53125 
Q 21.296875 41.40625 22.171875 42.140625 
Q 24.359375 44 26.890625 45.015625 
Q 29.4375 46.046875 31.9375 46.046875 
Q 36.140625 46.046875 39.15625 43.59375 
Q 42.1875 41.15625 43.21875 36.53125 
Q 48.25 42.390625 51.703125 44.21875 
Q 55.171875 46.046875 58.84375 46.046875 
Q 62.40625 46.046875 65.15625 44.21875 
Q 67.921875 42.390625 69.53125 38.234375 
Q 70.609375 35.40625 70.609375 29.34375 
L 70.609375 10.109375 
Q 70.609375 5.90625 71.234375 4.34375 
Q 71.734375 3.265625 73.046875 2.515625 
Q 74.359375 1.765625 77.34375 1.765625 
L 77.34375 0 
L 55.28125 0 
L 55.28125 1.765625 
L 56.203125 1.765625 
Q 59.078125 1.765625 60.6875 2.875 
Q 61.8125 3.65625 62.3125 5.375 
Q 62.5 6.203125 62.5 10.109375 
L 62.5 29.34375 
Q 62.5 34.8125 61.1875 37.0625 
Q 59.28125 40.1875 55.078125 40.1875 
Q 52.484375 40.1875 49.875 38.890625 
Q 47.265625 37.59375 43.5625 34.078125 
L 43.453125 33.546875 
L 43.5625 31.453125 
L 43.5625 10.109375 
Q 43.5625 5.515625 44.0625 4.390625 
Q 44.578125 3.265625 45.984375 2.515625 
Q 47.40625 1.765625 50.828125 1.765625 
L 50.828125 0 
L 28.21875 0 
L 28.21875 1.765625 
Q 31.9375 1.765625 33.328125 2.640625 
Q 34.71875 3.515625 35.25 5.28125 
Q 35.5 6.109375 35.5 10.109375 
L 35.5 29.34375 
Q 35.5 34.8125 33.890625 37.203125 
Q 31.734375 40.328125 27.875 40.328125 
Q 25.25 40.328125 22.65625 38.921875 
Q 18.609375 36.765625 16.40625 34.078125 
L 16.40625 10.109375 
Q 16.40625 5.71875 17.015625 4.390625 
Q 17.625 3.078125 18.8125 2.421875 
Q 20.015625 1.765625 23.6875 1.765625 
L 23.6875 0 
L 1.5625 0 
L 1.5625 1.765625 
Q 4.640625 1.765625 5.859375 2.421875 
Q 7.078125 3.078125 7.703125 4.515625 
Q 8.34375 5.953125 8.34375 10.109375 
L 8.34375 27.203125 
Q 8.34375 34.578125 7.90625 36.71875 
Q 7.5625 38.328125 6.828125 38.9375 
Q 6.109375 39.546875 4.828125 39.546875 
Q 3.46875 39.546875 1.5625 38.8125 
L 0.828125 40.578125 
L 14.3125 46.046875 
L 16.40625 46.046875 
z
" id="TimesNewRomanPSMT-109"/>
      <path d="M 2.25 67.390625 
L 2.25 69.4375 
Q 9.671875 65.765625 14.59375 60.796875 
Q 21.578125 53.65625 25.390625 44.0625 
Q 29.203125 34.46875 29.203125 24.078125 
Q 29.203125 8.9375 21.75 -3.53125 
Q 14.3125 -16.015625 2.25 -21.390625 
L 2.25 -19.578125 
Q 8.25 -16.21875 12.125 -10.46875 
Q 16.015625 -4.734375 17.890625 4.125 
Q 19.78125 12.984375 19.78125 22.609375 
Q 19.78125 33.015625 18.171875 41.609375 
Q 16.9375 48.34375 15.109375 52.390625 
Q 13.28125 56.453125 10.25 60.203125 
Q 7.234375 63.96875 2.25 67.390625 
z
" id="TimesNewRomanPSMT-41"/>
     </defs>
     <use xlink:href="#TimesNewRomanPSMT-69"/>
     <use x="61.083984" xlink:href="#TimesNewRomanPSMT-97"/>
     <use x="105.46875" xlink:href="#TimesNewRomanPSMT-115"/>
     <use x="144.384766" xlink:href="#TimesNewRomanPSMT-116"/>
     <use x="172.167969" xlink:href="#TimesNewRomanPSMT-32"/>
     <use x="197.167969" xlink:href="#TimesNewRomanPSMT-68"/>
     <use x="269.384766" xlink:href="#TimesNewRomanPSMT-105"/>
     <use x="297.167969" xlink:href="#TimesNewRomanPSMT-114"/>
     <use x="330.46875" xlink:href="#TimesNewRomanPSMT-101"/>
     <use x="374.853516" xlink:href="#TimesNewRomanPSMT-99"/>
     <use x="419.238281" xlink:href="#TimesNewRomanPSMT-116"/>
     <use x="447.021484" xlink:href="#TimesNewRomanPSMT-105"/>
     <use x="474.804688" xlink:href="#TimesNewRomanPSMT-111"/>
     <use x="524.804688" xlink:href="#TimesNewRomanPSMT-110"/>
     <use x="574.804688" xlink:href="#TimesNewRomanPSMT-32"/>
     <use x="599.804688" xlink:href="#TimesNewRomanPSMT-40"/>
     <use x="633.105469" xlink:href="#TimesNewRomanPSMT-109"/>
     <use x="710.888672" xlink:href="#TimesNewRomanPSMT-41"/>
    </g>
   </g>
   <g id="Line3DCollection_1">
    <path d="M 1383.756459 633.36938 
L 892.602804 617.768906 
L 885.977508 264.537015 
" style="fill:none;stroke:#b0b0b0;"/>
    <path d="M 1380.794502 668.418111 
L 879.702824 652.175112 
L 872.551994 292.593425 
" style="fill:none;stroke:#b0b0b0;"/>
    <path d="M 1377.708683 704.9325 
L 866.268517 688.006446 
L 858.553343 321.847565 
" style="fill:none;stroke:#b0b0b0;"/>
    <path d="M 1374.491066 743.006445 
L 852.265984 725.353327 
L 843.944055 352.377806 
" style="fill:none;stroke:#b0b0b0;"/>
    <path d="M 1371.133024 782.742041 
L 837.658395 764.313985 
L 828.683283 384.269505 
" style="fill:none;stroke:#b0b0b0;"/>
   </g>
   <g id="xtick_1">
    <g id="line2d_2">
     <path d="M 1379.791373 633.243437 
L 1391.688382 633.621321 
" style="fill:none;stroke:#000000;stroke-linecap:square;"/>
    </g>
    <g id="text_2">
     <!-- 0 -->
     <g transform="translate(1397.80001 653.730639)scale(0.1 -0.1)">
      <defs>
       <path d="M 31.78125 66.40625 
Q 24.171875 66.40625 20.328125 58.90625 
Q 16.5 51.421875 16.5 36.375 
Q 16.5 21.390625 20.328125 13.890625 
Q 24.171875 6.390625 31.78125 6.390625 
Q 39.453125 6.390625 43.28125 13.890625 
Q 47.125 21.390625 47.125 36.375 
Q 47.125 51.421875 43.28125 58.90625 
Q 39.453125 66.40625 31.78125 66.40625 
z
M 31.78125 74.21875 
Q 44.046875 74.21875 50.515625 64.515625 
Q 56.984375 54.828125 56.984375 36.375 
Q 56.984375 17.96875 50.515625 8.265625 
Q 44.046875 -1.421875 31.78125 -1.421875 
Q 19.53125 -1.421875 13.0625 8.265625 
Q 6.59375 17.96875 6.59375 36.375 
Q 6.59375 54.828125 13.0625 64.515625 
Q 19.53125 74.21875 31.78125 74.21875 
z
" id="DejaVuSans-48"/>
      </defs>
      <use xlink:href="#DejaVuSans-48"/>
     </g>
    </g>
   </g>
   <g id="xtick_2">
    <g id="line2d_3">
     <path d="M 1376.748437 668.286957 
L 1388.888456 668.680478 
" style="fill:none;stroke:#000000;stroke-linecap:square;"/>
    </g>
    <g id="text_3">
     <!-- 2 -->
     <g transform="translate(1395.192671 689.015815)scale(0.1 -0.1)">
      <defs>
       <path d="M 19.1875 8.296875 
L 53.609375 8.296875 
L 53.609375 0 
L 7.328125 0 
L 7.328125 8.296875 
Q 12.9375 14.109375 22.625 23.890625 
Q 32.328125 33.6875 34.8125 36.53125 
Q 39.546875 41.84375 41.421875 45.53125 
Q 43.3125 49.21875 43.3125 52.78125 
Q 43.3125 58.59375 39.234375 62.25 
Q 35.15625 65.921875 28.609375 65.921875 
Q 23.96875 65.921875 18.8125 64.3125 
Q 13.671875 62.703125 7.8125 59.421875 
L 7.8125 69.390625 
Q 13.765625 71.78125 18.9375 73 
Q 24.125 74.21875 28.421875 74.21875 
Q 39.75 74.21875 46.484375 68.546875 
Q 53.21875 62.890625 53.21875 53.421875 
Q 53.21875 48.921875 51.53125 44.890625 
Q 49.859375 40.875 45.40625 35.40625 
Q 44.1875 33.984375 37.640625 27.21875 
Q 31.109375 20.453125 19.1875 8.296875 
z
" id="DejaVuSans-50"/>
      </defs>
      <use xlink:href="#DejaVuSans-50"/>
     </g>
    </g>
   </g>
   <g id="xtick_3">
    <g id="line2d_4">
     <path d="M 1373.578262 704.795804 
L 1385.971425 705.205954 
" style="fill:none;stroke:#000000;stroke-linecap:square;"/>
    </g>
    <g id="text_4">
     <!-- 4 -->
     <g transform="translate(1392.476378 725.775471)scale(0.1 -0.1)">
      <defs>
       <path d="M 37.796875 64.3125 
L 12.890625 25.390625 
L 37.796875 25.390625 
z
M 35.203125 72.90625 
L 47.609375 72.90625 
L 47.609375 25.390625 
L 58.015625 25.390625 
L 58.015625 17.1875 
L 47.609375 17.1875 
L 47.609375 0 
L 37.796875 0 
L 37.796875 17.1875 
L 4.890625 17.1875 
L 4.890625 26.703125 
z
" id="DejaVuSans-52"/>
      </defs>
      <use xlink:href="#DejaVuSans-52"/>
     </g>
    </g>
   </g>
   <g id="xtick_4">
    <g id="line2d_5">
     <path d="M 1370.272698 742.863849 
L 1382.929786 743.291704 
" style="fill:none;stroke:#000000;stroke-linecap:square;"/>
    </g>
    <g id="text_5">
     <!-- 6 -->
     <g transform="translate(1389.644156 764.104003)scale(0.1 -0.1)">
      <defs>
       <path d="M 33.015625 40.375 
Q 26.375 40.375 22.484375 35.828125 
Q 18.609375 31.296875 18.609375 23.390625 
Q 18.609375 15.53125 22.484375 10.953125 
Q 26.375 6.390625 33.015625 6.390625 
Q 39.65625 6.390625 43.53125 10.953125 
Q 47.40625 15.53125 47.40625 23.390625 
Q 47.40625 31.296875 43.53125 35.828125 
Q 39.65625 40.375 33.015625 40.375 
z
M 52.59375 71.296875 
L 52.59375 62.3125 
Q 48.875 64.0625 45.09375 64.984375 
Q 41.3125 65.921875 37.59375 65.921875 
Q 27.828125 65.921875 22.671875 59.328125 
Q 17.53125 52.734375 16.796875 39.40625 
Q 19.671875 43.65625 24.015625 45.921875 
Q 28.375 48.1875 33.59375 48.1875 
Q 44.578125 48.1875 50.953125 41.515625 
Q 57.328125 34.859375 57.328125 23.390625 
Q 57.328125 12.15625 50.6875 5.359375 
Q 44.046875 -1.421875 33.015625 -1.421875 
Q 20.359375 -1.421875 13.671875 8.265625 
Q 6.984375 17.96875 6.984375 36.375 
Q 6.984375 53.65625 15.1875 63.9375 
Q 23.390625 74.21875 37.203125 74.21875 
Q 40.921875 74.21875 44.703125 73.484375 
Q 48.484375 72.75 52.59375 71.296875 
z
" id="DejaVuSans-54"/>
      </defs>
      <use xlink:href="#DejaVuSans-54"/>
     </g>
    </g>
   </g>
   <g id="xtick_5">
    <g id="line2d_6">
     <path d="M 1366.822881 782.593154 
L 1379.75538 783.039887 
" style="fill:none;stroke:#000000;stroke-linecap:square;"/>
    </g>
    <g id="text_6">
     <!-- 8 -->
     <g transform="translate(1386.688421 804.104038)scale(0.1 -0.1)">
      <defs>
       <path d="M 31.78125 34.625 
Q 24.75 34.625 20.71875 30.859375 
Q 16.703125 27.09375 16.703125 20.515625 
Q 16.703125 13.921875 20.71875 10.15625 
Q 24.75 6.390625 31.78125 6.390625 
Q 38.8125 6.390625 42.859375 10.171875 
Q 46.921875 13.96875 46.921875 20.515625 
Q 46.921875 27.09375 42.890625 30.859375 
Q 38.875 34.625 31.78125 34.625 
z
M 21.921875 38.8125 
Q 15.578125 40.375 12.03125 44.71875 
Q 8.5 49.078125 8.5 55.328125 
Q 8.5 64.0625 14.71875 69.140625 
Q 20.953125 74.21875 31.78125 74.21875 
Q 42.671875 74.21875 48.875 69.140625 
Q 55.078125 64.0625 55.078125 55.328125 
Q 55.078125 49.078125 51.53125 44.71875 
Q 48 40.375 41.703125 38.8125 
Q 48.828125 37.15625 52.796875 32.3125 
Q 56.78125 27.484375 56.78125 20.515625 
Q 56.78125 9.90625 50.3125 4.234375 
Q 43.84375 -1.421875 31.78125 -1.421875 
Q 19.734375 -1.421875 13.25 4.234375 
Q 6.78125 9.90625 6.78125 20.515625 
Q 6.78125 27.484375 10.78125 32.3125 
Q 14.796875 37.15625 21.921875 38.8125 
z
M 18.3125 54.390625 
Q 18.3125 48.734375 21.84375 45.5625 
Q 25.390625 42.390625 31.78125 42.390625 
Q 38.140625 42.390625 41.71875 45.5625 
Q 45.3125 48.734375 45.3125 54.390625 
Q 45.3125 60.0625 41.71875 63.234375 
Q 38.140625 66.40625 31.78125 66.40625 
Q 25.390625 66.40625 21.84375 63.234375 
Q 18.3125 60.0625 18.3125 54.390625 
z
" id="DejaVuSans-56"/>
      </defs>
      <use xlink:href="#DejaVuSans-56"/>
     </g>
    </g>
   </g>
  </g>
  <g id="axis3d_2">
   <g id="line2d_7">
    <path d="M 823.311322 802.579807 
L 1367.833487 821.785348 
" style="fill:none;stroke:#000000;stroke-linecap:square;stroke-width:0.8;"/>
   </g>
   <g id="text_7">
    <!-- North Direction (m) -->
    <g transform="translate(1030.762838 848.85434)rotate(-357.979989)scale(0.15 -0.15)">
     <defs>
      <path d="M -1.3125 66.21875 
L 16.65625 66.21875 
L 57.125 16.546875 
L 57.125 54.734375 
Q 57.125 60.84375 55.765625 62.359375 
Q 53.953125 64.40625 50.046875 64.40625 
L 47.75 64.40625 
L 47.75 66.21875 
L 70.796875 66.21875 
L 70.796875 64.40625 
L 68.453125 64.40625 
Q 64.265625 64.40625 62.5 61.859375 
Q 61.421875 60.296875 61.421875 54.734375 
L 61.421875 -1.078125 
L 59.671875 -1.078125 
L 16.015625 52.25 
L 16.015625 11.46875 
Q 16.015625 5.375 17.328125 3.859375 
Q 19.1875 1.8125 23.046875 1.8125 
L 25.390625 1.8125 
L 25.390625 0 
L 2.34375 0 
L 2.34375 1.8125 
L 4.640625 1.8125 
Q 8.890625 1.8125 10.640625 4.34375 
Q 11.71875 5.90625 11.71875 11.46875 
L 11.71875 57.515625 
Q 8.84375 60.890625 7.34375 61.953125 
Q 5.859375 63.03125 2.984375 63.96875 
Q 1.5625 64.40625 -1.3125 64.40625 
z
" id="TimesNewRomanPSMT-78"/>
      <path d="M 16.265625 69.4375 
L 16.265625 36.71875 
Q 21.6875 42.671875 24.859375 44.359375 
Q 28.03125 46.046875 31.203125 46.046875 
Q 35.015625 46.046875 37.75 43.9375 
Q 40.484375 41.84375 41.796875 37.359375 
Q 42.71875 34.234375 42.71875 25.921875 
L 42.71875 10.109375 
Q 42.71875 5.859375 43.40625 4.296875 
Q 43.890625 3.125 45.0625 2.4375 
Q 46.234375 1.765625 49.359375 1.765625 
L 49.359375 0 
L 27.390625 0 
L 27.390625 1.765625 
L 28.421875 1.765625 
Q 31.546875 1.765625 32.765625 2.703125 
Q 33.984375 3.65625 34.46875 5.515625 
Q 34.625 6.296875 34.625 10.109375 
L 34.625 25.921875 
Q 34.625 33.25 33.859375 35.546875 
Q 33.109375 37.84375 31.4375 38.984375 
Q 29.78125 40.140625 27.4375 40.140625 
Q 25.046875 40.140625 22.453125 38.859375 
Q 19.875 37.59375 16.265625 33.734375 
L 16.265625 10.109375 
Q 16.265625 5.515625 16.765625 4.390625 
Q 17.28125 3.265625 18.671875 2.515625 
Q 20.0625 1.765625 23.484375 1.765625 
L 23.484375 0 
L 1.3125 0 
L 1.3125 1.765625 
Q 4.296875 1.765625 6 2.6875 
Q 6.984375 3.171875 7.5625 4.53125 
Q 8.15625 5.90625 8.15625 10.109375 
L 8.15625 50.59375 
Q 8.15625 58.25 7.78125 60 
Q 7.421875 61.765625 6.65625 62.390625 
Q 5.90625 63.03125 4.640625 63.03125 
Q 3.609375 63.03125 1.3125 62.25 
L 0.640625 63.96875 
L 14.015625 69.4375 
z
" id="TimesNewRomanPSMT-104"/>
     </defs>
     <use xlink:href="#TimesNewRomanPSMT-78"/>
     <use x="72.216797" xlink:href="#TimesNewRomanPSMT-111"/>
     <use x="122.216797" xlink:href="#TimesNewRomanPSMT-114"/>
     <use x="155.517578" xlink:href="#TimesNewRomanPSMT-116"/>
     <use x="183.300781" xlink:href="#TimesNewRomanPSMT-104"/>
     <use x="233.300781" xlink:href="#TimesNewRomanPSMT-32"/>
     <use x="258.300781" xlink:href="#TimesNewRomanPSMT-68"/>
     <use x="330.517578" xlink:href="#TimesNewRomanPSMT-105"/>
     <use x="358.300781" xlink:href="#TimesNewRomanPSMT-114"/>
     <use x="391.601562" xlink:href="#TimesNewRomanPSMT-101"/>
     <use x="435.986328" xlink:href="#TimesNewRomanPSMT-99"/>
     <use x="480.371094" xlink:href="#TimesNewRomanPSMT-116"/>
     <use x="508.154297" xlink:href="#TimesNewRomanPSMT-105"/>
     <use x="535.9375" xlink:href="#TimesNewRomanPSMT-111"/>
     <use x="585.9375" xlink:href="#TimesNewRomanPSMT-110"/>
     <use x="635.9375" xlink:href="#TimesNewRomanPSMT-32"/>
     <use x="660.9375" xlink:href="#TimesNewRomanPSMT-40"/>
     <use x="694.238281" xlink:href="#TimesNewRomanPSMT-109"/>
     <use x="772.021484" xlink:href="#TimesNewRomanPSMT-41"/>
    </g>
   </g>
   <g id="Line3DCollection_2">
    <path d="M 926.445106 257.318335 
L 931.886386 608.909835 
L 862.908353 803.976412 
" style="fill:none;stroke:#b0b0b0;"/>
    <path d="M 980.414143 258.66731 
L 984.326374 610.565562 
L 921.343568 806.037448 
" style="fill:none;stroke:#b0b0b0;"/>
    <path d="M 1034.492337 260.019014 
L 1036.869408 612.224542 
L 979.906918 808.103004 
" style="fill:none;stroke:#b0b0b0;"/>
    <path d="M 1088.680019 261.373455 
L 1089.515792 613.886785 
L 1038.598823 810.173094 
" style="fill:none;stroke:#b0b0b0;"/>
    <path d="M 1142.977522 262.73064 
L 1142.26583 615.552301 
L 1097.419709 812.247733 
" style="fill:none;stroke:#b0b0b0;"/>
    <path d="M 1197.385181 264.090579 
L 1195.119831 617.2211 
L 1156.369999 814.326936 
" style="fill:none;stroke:#b0b0b0;"/>
    <path d="M 1251.903332 265.453279 
L 1248.078101 618.893191 
L 1215.450124 816.410719 
" style="fill:none;stroke:#b0b0b0;"/>
    <path d="M 1306.53231 266.81875 
L 1301.140949 620.568584 
L 1274.66051 818.499096 
" style="fill:none;stroke:#b0b0b0;"/>
    <path d="M 1361.272454 268.187 
L 1354.308685 622.247288 
L 1334.00159 820.592082 
" style="fill:none;stroke:#b0b0b0;"/>
   </g>
   <g id="xtick_6">
    <g id="line2d_8">
     <path d="M 863.523421 802.237029 
L 861.674797 807.46485 
" style="fill:none;stroke:#000000;stroke-linecap:square;"/>
    </g>
    <g id="text_8">
     <!-- −0.25 -->
     <g transform="translate(845.145941 832.566047)scale(0.1 -0.1)">
      <defs>
       <path d="M 10.59375 35.5 
L 73.1875 35.5 
L 73.1875 27.203125 
L 10.59375 27.203125 
z
" id="DejaVuSans-8722"/>
       <path d="M 10.6875 12.40625 
L 21 12.40625 
L 21 0 
L 10.6875 0 
z
" id="DejaVuSans-46"/>
       <path d="M 10.796875 72.90625 
L 49.515625 72.90625 
L 49.515625 64.59375 
L 19.828125 64.59375 
L 19.828125 46.734375 
Q 21.96875 47.46875 24.109375 47.828125 
Q 26.265625 48.1875 28.421875 48.1875 
Q 40.625 48.1875 47.75 41.5 
Q 54.890625 34.8125 54.890625 23.390625 
Q 54.890625 11.625 47.5625 5.09375 
Q 40.234375 -1.421875 26.90625 -1.421875 
Q 22.3125 -1.421875 17.546875 -0.640625 
Q 12.796875 0.140625 7.71875 1.703125 
L 7.71875 11.625 
Q 12.109375 9.234375 16.796875 8.0625 
Q 21.484375 6.890625 26.703125 6.890625 
Q 35.15625 6.890625 40.078125 11.328125 
Q 45.015625 15.765625 45.015625 23.390625 
Q 45.015625 31 40.078125 35.4375 
Q 35.15625 39.890625 26.703125 39.890625 
Q 22.75 39.890625 18.8125 39.015625 
Q 14.890625 38.140625 10.796875 36.28125 
z
" id="DejaVuSans-53"/>
      </defs>
      <use xlink:href="#DejaVuSans-8722"/>
      <use x="83.789062" xlink:href="#DejaVuSans-48"/>
      <use x="147.412109" xlink:href="#DejaVuSans-46"/>
      <use x="179.199219" xlink:href="#DejaVuSans-50"/>
      <use x="242.822266" xlink:href="#DejaVuSans-53"/>
     </g>
    </g>
   </g>
   <g id="xtick_7">
    <g id="line2d_9">
     <path d="M 921.905241 804.294256 
L 920.217097 809.533538 
" style="fill:none;stroke:#000000;stroke-linecap:square;"/>
    </g>
    <g id="text_9">
     <!-- 0.00 -->
     <g transform="translate(907.942297 834.656277)scale(0.1 -0.1)">
      <use xlink:href="#DejaVuSans-48"/>
      <use x="63.623047" xlink:href="#DejaVuSans-46"/>
      <use x="95.410156" xlink:href="#DejaVuSans-48"/>
      <use x="159.033203" xlink:href="#DejaVuSans-48"/>
     </g>
    </g>
   </g>
   <g id="xtick_8">
    <g id="line2d_10">
     <path d="M 980.414959 806.355989 
L 978.888004 811.606771 
" style="fill:none;stroke:#000000;stroke-linecap:square;"/>
    </g>
    <g id="text_10">
     <!-- 0.25 -->
     <g transform="translate(966.677703 836.751104)scale(0.1 -0.1)">
      <use xlink:href="#DejaVuSans-48"/>
      <use x="63.623047" xlink:href="#DejaVuSans-46"/>
      <use x="95.410156" xlink:href="#DejaVuSans-50"/>
      <use x="159.033203" xlink:href="#DejaVuSans-53"/>
     </g>
    </g>
   </g>
   <g id="xtick_9">
    <g id="line2d_11">
     <path d="M 1039.052996 808.422243 
L 1037.687942 813.684564 
" style="fill:none;stroke:#000000;stroke-linecap:square;"/>
    </g>
    <g id="text_11">
     <!-- 0.50 -->
     <g transform="translate(1025.542427 838.850544)scale(0.1 -0.1)">
      <use xlink:href="#DejaVuSans-48"/>
      <use x="63.623047" xlink:href="#DejaVuSans-46"/>
      <use x="95.410156" xlink:href="#DejaVuSans-53"/>
      <use x="159.033203" xlink:href="#DejaVuSans-48"/>
     </g>
    </g>
   </g>
   <g id="xtick_10">
    <g id="line2d_12">
     <path d="M 1097.819776 810.493034 
L 1096.617339 815.766931 
" style="fill:none;stroke:#000000;stroke-linecap:square;"/>
    </g>
    <g id="text_12">
     <!-- 0.75 -->
     <g transform="translate(1084.536897 840.954611)scale(0.1 -0.1)">
      <defs>
       <path d="M 8.203125 72.90625 
L 55.078125 72.90625 
L 55.078125 68.703125 
L 28.609375 0 
L 18.3125 0 
L 43.21875 64.59375 
L 8.203125 64.59375 
z
" id="DejaVuSans-55"/>
      </defs>
      <use xlink:href="#DejaVuSans-48"/>
      <use x="63.623047" xlink:href="#DejaVuSans-46"/>
      <use x="95.410156" xlink:href="#DejaVuSans-55"/>
      <use x="159.033203" xlink:href="#DejaVuSans-53"/>
     </g>
    </g>
   </g>
   <g id="xtick_11">
    <g id="line2d_13">
     <path d="M 1156.715722 812.568377 
L 1155.676622 817.853888 
" style="fill:none;stroke:#000000;stroke-linecap:square;"/>
    </g>
    <g id="text_13">
     <!-- 1.00 -->
     <g transform="translate(1143.661543 843.06332)scale(0.1 -0.1)">
      <defs>
       <path d="M 12.40625 8.296875 
L 28.515625 8.296875 
L 28.515625 63.921875 
L 10.984375 60.40625 
L 10.984375 69.390625 
L 28.421875 72.90625 
L 38.28125 72.90625 
L 38.28125 8.296875 
L 54.390625 8.296875 
L 54.390625 0 
L 12.40625 0 
z
" id="DejaVuSans-49"/>
      </defs>
      <use xlink:href="#DejaVuSans-49"/>
      <use x="63.623047" xlink:href="#DejaVuSans-46"/>
      <use x="95.410156" xlink:href="#DejaVuSans-48"/>
      <use x="159.033203" xlink:href="#DejaVuSans-48"/>
     </g>
    </g>
   </g>
   <g id="xtick_12">
    <g id="line2d_14">
     <path d="M 1215.74126 814.648286 
L 1214.86622 819.94545 
" style="fill:none;stroke:#000000;stroke-linecap:square;"/>
    </g>
    <g id="text_14">
     <!-- 1.25 -->
     <g transform="translate(1202.916796 845.176688)scale(0.1 -0.1)">
      <use xlink:href="#DejaVuSans-49"/>
      <use x="63.623047" xlink:href="#DejaVuSans-46"/>
      <use x="95.410156" xlink:href="#DejaVuSans-50"/>
      <use x="159.033203" xlink:href="#DejaVuSans-53"/>
     </g>
    </g>
   </g>
   <g id="xtick_13">
    <g id="line2d_15">
     <path d="M 1274.89682 816.732777 
L 1274.186566 822.041632 
" style="fill:none;stroke:#000000;stroke-linecap:square;"/>
    </g>
    <g id="text_15">
     <!-- 1.50 -->
     <g transform="translate(1262.303088 847.294729)scale(0.1 -0.1)">
      <use xlink:href="#DejaVuSans-49"/>
      <use x="63.623047" xlink:href="#DejaVuSans-46"/>
      <use x="95.410156" xlink:href="#DejaVuSans-53"/>
      <use x="159.033203" xlink:href="#DejaVuSans-48"/>
     </g>
    </g>
   </g>
   <g id="xtick_14">
    <g id="line2d_16">
     <path d="M 1334.18283 818.821864 
L 1333.638094 824.14245 
" style="fill:none;stroke:#000000;stroke-linecap:square;"/>
    </g>
    <g id="text_16">
     <!-- 1.75 -->
     <g transform="translate(1321.820857 849.41746)scale(0.1 -0.1)">
      <use xlink:href="#DejaVuSans-49"/>
      <use x="63.623047" xlink:href="#DejaVuSans-46"/>
      <use x="95.410156" xlink:href="#DejaVuSans-55"/>
      <use x="159.033203" xlink:href="#DejaVuSans-53"/>
     </g>
    </g>
   </g>
  </g>
  <g id="axis3d_3">
   <g id="line2d_17">
    <path d="M 823.311322 802.579807 
L 813.67455 415.6345 
" style="fill:none;stroke:#000000;stroke-linecap:square;stroke-width:0.8;"/>
   </g>
   <g id="text_17">
    <!-- Height Direction (m) -->
    <g transform="translate(776.026246 559.741934)rotate(-271.426642)scale(0.15 -0.15)">
     <defs>
      <path d="M 20.5625 35.5 
L 51.3125 35.5 
L 51.3125 54.4375 
Q 51.3125 59.515625 50.6875 61.140625 
Q 50.203125 62.359375 48.640625 63.234375 
Q 46.53125 64.40625 44.1875 64.40625 
L 41.84375 64.40625 
L 41.84375 66.21875 
L 70.171875 66.21875 
L 70.171875 64.40625 
L 67.828125 64.40625 
Q 65.484375 64.40625 63.375 63.28125 
Q 61.8125 62.5 61.25 60.90625 
Q 60.6875 59.328125 60.6875 54.4375 
L 60.6875 11.71875 
Q 60.6875 6.6875 61.328125 5.078125 
Q 61.8125 3.859375 63.328125 2.984375 
Q 65.484375 1.8125 67.828125 1.8125 
L 70.171875 1.8125 
L 70.171875 0 
L 41.84375 0 
L 41.84375 1.8125 
L 44.1875 1.8125 
Q 48.25 1.8125 50.09375 4.203125 
Q 51.3125 5.765625 51.3125 11.71875 
L 51.3125 31.890625 
L 20.5625 31.890625 
L 20.5625 11.71875 
Q 20.5625 6.6875 21.1875 5.078125 
Q 21.6875 3.859375 23.25 2.984375 
Q 25.34375 1.8125 27.6875 1.8125 
L 30.078125 1.8125 
L 30.078125 0 
L 1.703125 0 
L 1.703125 1.8125 
L 4.046875 1.8125 
Q 8.15625 1.8125 10.015625 4.203125 
Q 11.1875 5.765625 11.1875 11.71875 
L 11.1875 54.4375 
Q 11.1875 59.515625 10.546875 61.140625 
Q 10.0625 62.359375 8.546875 63.234375 
Q 6.390625 64.40625 4.046875 64.40625 
L 1.703125 64.40625 
L 1.703125 66.21875 
L 30.078125 66.21875 
L 30.078125 64.40625 
L 27.6875 64.40625 
Q 25.34375 64.40625 23.25 63.28125 
Q 21.734375 62.5 21.140625 60.90625 
Q 20.5625 59.328125 20.5625 54.4375 
z
" id="TimesNewRomanPSMT-72"/>
      <path d="M 15.09375 16.3125 
Q 10.984375 18.3125 8.78125 21.890625 
Q 6.59375 25.484375 6.59375 29.828125 
Q 6.59375 36.46875 11.59375 41.25 
Q 16.609375 46.046875 24.421875 46.046875 
Q 30.8125 46.046875 35.5 42.921875 
L 44.96875 42.921875 
Q 47.078125 42.921875 47.40625 42.796875 
Q 47.75 42.671875 47.90625 42.390625 
Q 48.1875 41.9375 48.1875 40.828125 
Q 48.1875 39.546875 47.953125 39.0625 
Q 47.796875 38.8125 47.4375 38.671875 
Q 47.078125 38.53125 44.96875 38.53125 
L 39.15625 38.53125 
Q 41.890625 35.015625 41.890625 29.546875 
Q 41.890625 23.296875 37.109375 18.84375 
Q 32.328125 14.40625 24.265625 14.40625 
Q 20.953125 14.40625 17.484375 15.375 
Q 15.328125 13.53125 14.5625 12.140625 
Q 13.8125 10.75 13.8125 9.765625 
Q 13.8125 8.9375 14.625 8.15625 
Q 15.4375 7.375 17.78125 7.03125 
Q 19.140625 6.84375 24.609375 6.6875 
Q 34.671875 6.453125 37.640625 6 
Q 42.1875 5.375 44.890625 2.640625 
Q 47.609375 -0.09375 47.609375 -4.109375 
Q 47.609375 -9.625 42.4375 -14.453125 
Q 34.8125 -21.578125 22.5625 -21.578125 
Q 13.140625 -21.578125 6.640625 -17.328125 
Q 2.984375 -14.890625 2.984375 -12.25 
Q 2.984375 -11.078125 3.515625 -9.90625 
Q 4.34375 -8.109375 6.9375 -4.890625 
Q 7.28125 -4.4375 11.921875 0.390625 
Q 9.375 1.90625 8.328125 3.09375 
Q 7.28125 4.296875 7.28125 5.8125 
Q 7.28125 7.515625 8.671875 9.8125 
Q 10.0625 12.109375 15.09375 16.3125 
z
M 23.578125 43.703125 
Q 19.96875 43.703125 17.53125 40.8125 
Q 15.09375 37.9375 15.09375 31.984375 
Q 15.09375 24.265625 18.40625 20.015625 
Q 20.953125 16.796875 24.859375 16.796875 
Q 28.5625 16.796875 30.953125 19.578125 
Q 33.34375 22.359375 33.34375 28.328125 
Q 33.34375 36.078125 29.984375 40.484375 
Q 27.484375 43.703125 23.578125 43.703125 
z
M 14.59375 0 
Q 12.3125 -2.484375 11.140625 -4.625 
Q 9.96875 -6.78125 9.96875 -8.59375 
Q 9.96875 -10.9375 12.796875 -12.703125 
Q 17.671875 -15.71875 26.90625 -15.71875 
Q 35.6875 -15.71875 39.859375 -12.609375 
Q 44.046875 -9.515625 44.046875 -6 
Q 44.046875 -3.46875 41.546875 -2.390625 
Q 39.015625 -1.3125 31.5 -1.125 
Q 20.515625 -0.828125 14.59375 0 
z
" id="TimesNewRomanPSMT-103"/>
     </defs>
     <use xlink:href="#TimesNewRomanPSMT-72"/>
     <use x="72.216797" xlink:href="#TimesNewRomanPSMT-101"/>
     <use x="116.601562" xlink:href="#TimesNewRomanPSMT-105"/>
     <use x="144.384766" xlink:href="#TimesNewRomanPSMT-103"/>
     <use x="194.384766" xlink:href="#TimesNewRomanPSMT-104"/>
     <use x="244.384766" xlink:href="#TimesNewRomanPSMT-116"/>
     <use x="272.167969" xlink:href="#TimesNewRomanPSMT-32"/>
     <use x="297.167969" xlink:href="#TimesNewRomanPSMT-68"/>
     <use x="369.384766" xlink:href="#TimesNewRomanPSMT-105"/>
     <use x="397.167969" xlink:href="#TimesNewRomanPSMT-114"/>
     <use x="430.46875" xlink:href="#TimesNewRomanPSMT-101"/>
     <use x="474.853516" xlink:href="#TimesNewRomanPSMT-99"/>
     <use x="519.238281" xlink:href="#TimesNewRomanPSMT-116"/>
     <use x="547.021484" xlink:href="#TimesNewRomanPSMT-105"/>
     <use x="574.804688" xlink:href="#TimesNewRomanPSMT-111"/>
     <use x="624.804688" xlink:href="#TimesNewRomanPSMT-110"/>
     <use x="674.804688" xlink:href="#TimesNewRomanPSMT-32"/>
     <use x="699.804688" xlink:href="#TimesNewRomanPSMT-40"/>
     <use x="733.105469" xlink:href="#TimesNewRomanPSMT-109"/>
     <use x="810.888672" xlink:href="#TimesNewRomanPSMT-41"/>
    </g>
   </g>
   <g id="Line3DCollection_3">
    <path d="M 823.124571 795.081197 
L 896.219177 600.955588 
L 1384.76833 616.318433 
" style="fill:none;stroke:#b0b0b0;"/>
    <path d="M 821.999076 749.889204 
L 895.460691 559.799593 
L 1385.688905 574.837556 
" style="fill:none;stroke:#b0b0b0;"/>
    <path d="M 820.864957 704.350929 
L 894.697 518.36115 
L 1386.615857 533.06938 
" style="fill:none;stroke:#b0b0b0;"/>
    <path d="M 819.722115 658.462377 
L 893.92805 476.637343 
L 1387.54925 491.010908 
" style="fill:none;stroke:#b0b0b0;"/>
    <path d="M 818.570448 612.219491 
L 893.153786 434.625213 
L 1388.489154 448.659105 
" style="fill:none;stroke:#b0b0b0;"/>
    <path d="M 817.409854 565.618152 
L 892.374153 392.321762 
L 1389.435636 406.010891 
" style="fill:none;stroke:#b0b0b0;"/>
    <path d="M 816.240228 518.654174 
L 891.589096 349.723948 
L 1390.388765 363.063142 
" style="fill:none;stroke:#b0b0b0;"/>
    <path d="M 815.061465 471.323309 
L 890.798556 306.828689 
L 1391.348613 319.812693 
" style="fill:none;stroke:#b0b0b0;"/>
    <path d="M 813.873457 423.621241 
L 890.002477 263.632858 
L 1392.315249 276.256332 
" style="fill:none;stroke:#b0b0b0;"/>
   </g>
   <g id="xtick_15">
    <g id="line2d_18">
     <path d="M 823.776339 793.350224 
L 821.817412 798.552767 
" style="fill:none;stroke:#000000;stroke-linecap:square;"/>
    </g>
    <g id="text_18">
     <!-- 0 -->
     <g transform="translate(797.930932 809.685847)scale(0.1 -0.1)">
      <use xlink:href="#DejaVuSans-48"/>
     </g>
    </g>
   </g>
   <g id="xtick_16">
    <g id="line2d_19">
     <path d="M 822.654373 748.193555 
L 820.684825 753.289966 
" style="fill:none;stroke:#000000;stroke-linecap:square;"/>
    </g>
    <g id="text_19">
     <!-- 2 -->
     <g transform="translate(796.716883 764.351002)scale(0.1 -0.1)">
      <use xlink:href="#DejaVuSans-50"/>
     </g>
    </g>
   </g>
   <g id="xtick_17">
    <g id="line2d_20">
     <path d="M 821.523819 702.691196 
L 819.543543 707.679694 
" style="fill:none;stroke:#000000;stroke-linecap:square;"/>
    </g>
    <g id="text_20">
     <!-- 4 -->
     <g transform="translate(795.493496 718.667471)scale(0.1 -0.1)">
      <use xlink:href="#DejaVuSans-52"/>
     </g>
    </g>
   </g>
   <g id="xtick_18">
    <g id="line2d_21">
     <path d="M 820.384576 656.839164 
L 818.393467 661.717932 
" style="fill:none;stroke:#000000;stroke-linecap:square;"/>
    </g>
    <g id="text_21">
     <!-- 6 -->
     <g transform="translate(794.260664 672.631216)scale(0.1 -0.1)">
      <use xlink:href="#DejaVuSans-54"/>
     </g>
    </g>
   </g>
   <g id="xtick_19">
    <g id="line2d_22">
     <path d="M 819.236545 610.633413 
L 817.234493 615.400604 
" style="fill:none;stroke:#000000;stroke-linecap:square;"/>
    </g>
    <g id="text_22">
     <!-- 8 -->
     <g transform="translate(793.018276 626.238137)scale(0.1 -0.1)">
      <use xlink:href="#DejaVuSans-56"/>
     </g>
    </g>
   </g>
   <g id="xtick_20">
    <g id="line2d_23">
     <path d="M 818.079623 564.069832 
L 816.066518 568.723567 
" style="fill:none;stroke:#000000;stroke-linecap:square;"/>
    </g>
    <g id="text_23">
     <!-- 10 -->
     <g transform="translate(788.58497 579.484068)scale(0.1 -0.1)">
      <use xlink:href="#DejaVuSans-49"/>
      <use x="63.623047" xlink:href="#DejaVuSans-48"/>
     </g>
    </g>
   </g>
   <g id="xtick_21">
    <g id="line2d_24">
     <path d="M 816.913707 517.144251 
L 814.889437 521.682613 
" style="fill:none;stroke:#000000;stroke-linecap:square;"/>
    </g>
    <g id="text_24">
     <!-- 12 -->
     <g transform="translate(787.323135 532.36478)scale(0.1 -0.1)">
      <use xlink:href="#DejaVuSans-49"/>
      <use x="63.623047" xlink:href="#DejaVuSans-50"/>
     </g>
    </g>
   </g>
   <g id="xtick_22">
    <g id="line2d_25">
     <path d="M 815.738692 469.85243 
L 813.703143 474.273471 
" style="fill:none;stroke:#000000;stroke-linecap:square;"/>
    </g>
    <g id="text_25">
     <!-- 14 -->
     <g transform="translate(786.051403 484.875976)scale(0.1 -0.1)">
      <use xlink:href="#DejaVuSans-49"/>
      <use x="63.623047" xlink:href="#DejaVuSans-52"/>
     </g>
    </g>
   </g>
   <g id="xtick_23">
    <g id="line2d_26">
     <path d="M 814.554469 422.190065 
L 812.507528 426.491801 
" style="fill:none;stroke:#000000;stroke-linecap:square;"/>
    </g>
    <g id="text_26">
     <!-- 16 -->
     <g transform="translate(784.76966 437.013294)scale(0.1 -0.1)">
      <use xlink:href="#DejaVuSans-49"/>
      <use x="63.623047" xlink:href="#DejaVuSans-54"/>
     </g>
    </g>
   </g>
  </g>
  <g id="axes_1">
   <g id="line2d_27">
    <path clip-path="url(#p5a7c884f50)" d="M 964.362963 296.374311 
L 962.068681 296.514601 
L 963.417053 296.516471 
L 958.748002 296.414777 
L 960.257709 296.555857 
L 962.232137 296.694767 
L 962.759964 297.089707 
L 964.124277 297.693932 
L 970.632122 298.556432 
L 972.2286 299.792286 
L 977.517034 301.344983 
L 984.538164 303.048801 
L 991.187228 304.881239 
L 996.654624 306.672677 
L 1000.107402 308.403446 
L 1007.314082 310.409276 
L 1014.06132 312.844773 
L 1017.883934 314.829206 
L 1022.748135 317.169615 
L 1028.295279 319.638162 
L 1027.039766 322.123268 
L 1033.971302 324.725226 
L 1043.809546 330.256036 
L 1046.566656 333.127376 
L 1049.163461 336.29837 
L 1049.513843 337.946259 
L 1047.602028 340.392724 
L 1045.086615 340.940473 
L 1041.474209 341.906172 
L 1041.802186 343.082048 
L 1040.454477 344.243997 
L 1041.027453 345.452143 
L 1039.455944 346.561092 
L 1039.256103 347.541223 
L 1042.327626 348.537692 
L 1041.699437 349.869714 
L 1045.15005 352.221526 
L 1045.15005 352.221526 
L 1049.307907 353.509348 
L 1050.967882 355.135873 
L 1051.603749 356.499363 
L 1053.187755 357.84321 
L 1055.418564 359.568275 
L 1063.572697 362.604851 
L 1068.882185 364.238941 
L 1067.656188 365.652525 
L 1066.365903 366.913342 
L 1075.717067 368.828008 
L 1077.148938 370.357145 
L 1079.349063 371.672174 
L 1080.91099 373.249263 
L 1083.806307 375.002647 
L 1091.808011 377.110328 
L 1094.193046 379.521631 
L 1099.685146 381.882666 
L 1106.53368 384.519559 
L 1108.063155 387.124026 
L 1116.043901 389.708686 
L 1121.820392 392.088958 
L 1129.879809 394.323091 
L 1136.276688 396.286538 
L 1141.51195 398.025051 
L 1141.548837 399.886966 
L 1145.260384 401.392598 
L 1149.258788 402.662421 
L 1162.761506 405.692669 
L 1161.643043 406.056048 
L 1166.26809 406.730771 
L 1164.16661 406.82282 
L 1164.288213 406.91256 
L 1166.988803 407.215274 
L 1168.918934 407.682063 
L 1182.544893 408.704695 
L 1192.587905 409.724126 
L 1203.345318 411.143763 
L 1208.538473 412.150196 
L 1213.262269 413.278024 
L 1221.568647 414.489565 
L 1227.172608 415.663925 
L 1231.83957 417.379356 
L 1240.866691 419.170285 
L 1252.586311 421.110278 
L 1258.41774 422.704909 
L 1265.986955 424.485433 
L 1276.863689 426.623584 
L 1283.147816 428.662282 
L 1299.517769 432.301631 
L 1303.473572 434.232501 
L 1308.498763 436.06384 
L 1315.525319 438.240705 
L 1320.732157 440.112118 
L 1325.533109 442.367889 
L 1333.938625 444.388471 
L 1337.112013 446.208155 
L 1338.012497 447.650671 
L 1339.515255 448.870828 
L 1341.035788 449.727288 
L 1339.511041 450.07028 
L 1337.473687 450.273986 
L 1331.589605 450.254449 
L 1329.474357 450.374496 
L 1322.184867 450.361942 
L 1318.574985 450.553894 
L 1316.315024 450.474869 
L 1308.849727 450.571747 
L 1308.85521 450.390446 
L 1301.610327 450.062604 
L 1303.115565 450.085436 
L 1297.061359 449.936401 
L 1295.055348 449.754458 
L 1294.416145 449.950577 
L 1288.374167 449.708741 
L 1290.523354 449.57114 
L 1285.19662 449.145644 
L 1287.613724 448.838255 
L 1284.908732 448.459202 
L 1281.680729 447.693952 
L 1279.642374 446.784338 
L 1280.490284 445.545361 
L 1276.719729 444.268048 
L 1274.03136 443.055202 
L 1271.002213 441.565112 
L 1268.7317 440.305682 
L 1271.457558 439.047094 
L 1269.893834 437.981949 
L 1265.991322 436.916641 
L 1267.059021 436.185454 
L 1265.060843 435.437966 
L 1260.379603 434.534976 
L 1255.904182 433.544402 
L 1252.183076 432.545455 
L 1245.351024 431.559023 
L 1241.152555 430.79924 
L 1243.075352 429.939193 
L 1240.221489 429.180661 
L 1239.211444 428.555257 
L 1234.353191 428.012016 
L 1233.129524 427.275872 
L 1234.79967 426.840508 
L 1228.298495 425.75614 
L 1227.988383 425.239373 
L 1218.59844 424.057881 
L 1215.132602 423.447097 
L 1213.605445 423.012932 
L 1207.694574 422.430817 
L 1196.750985 420.726782 
L 1186.808514 419.626785 
L 1183.206147 418.847445 
L 1178.06887 417.888877 
L 1175.60622 416.662018 
L 1168.149409 415.553047 
L 1165.582298 414.736012 
L 1157.964652 413.742511 
L 1154.462269 413.049694 
L 1144.027486 410.651123 
L 1139.747664 410.039246 
L 1140.142146 409.393927 
L 1136.001451 408.666037 
L 1135.636296 408.286914 
L 1137.591705 407.931024 
L 1135.061085 407.275732 
L 1134.8103 406.506916 
L 1134.285472 405.685704 
L 1138.040091 404.945524 
L 1138.59987 404.650827 
L 1136.766879 404.266439 
L 1140.168228 403.667013 
L 1140.15664 403.180065 
L 1139.417699 402.644466 
L 1138.817061 401.883897 
L 1138.729941 400.91878 
L 1136.122875 400.205108 
L 1137.351745 399.711903 
L 1137.412241 398.796226 
L 1138.052318 398.163672 
L 1135.854496 397.44428 
L 1139.525279 397.02892 
L 1140.012682 396.477276 
L 1136.744747 394.900854 
L 1131.459903 393.947741 
L 1127.23629 392.873379 
L 1127.691387 391.860032 
L 1120.573665 390.327822 
L 1118.524737 389.053291 
L 1112.685249 387.594324 
L 1107.484072 386.094219 
L 1106.34249 384.664824 
L 1102.949035 383.370671 
L 1095.567572 381.852635 
L 1095.116381 381.109864 
L 1093.629531 380.252335 
L 1084.740949 377.708776 
L 1080.546819 376.347533 
L 1077.189224 374.911032 
L 1073.586503 373.200305 
L 1069.081269 371.586446 
L 1065.107384 369.760922 
L 1060.596954 367.824061 
L 1056.41703 365.572552 
L 1053.247766 363.209023 
L 1048.835238 360.931375 
L 1044.956983 359.103964 
L 1036.007791 356.675447 
L 1033.213219 354.485745 
L 1025.200108 352.199255 
L 1022.313312 350.029764 
L 1016.960036 347.399847 
L 1013.249286 344.995849 
L 1009.802704 342.255951 
L 1009.98469 339.799176 
L 1008.291792 337.935419 
L 1010.859676 336.310168 
L 1010.224156 335.234499 
L 1006.638356 333.716717 
L 1010.291253 332.771377 
L 1011.318452 331.845418 
L 1013.337421 331.258821 
L 1013.046941 330.565488 
L 1010.942125 330.101926 
L 1009.014453 329.482001 
L 1004.856735 328.673725 
L 1005.114188 328.011913 
L 998.30523 326.717899 
L 994.244318 325.518303 
L 992.067629 324.447976 
L 991.098144 323.274083 
L 986.842232 321.897334 
L 981.484449 320.722075 
L 976.944726 319.35275 
L 975.229514 318.004098 
L 965.955667 316.607537 
L 960.526973 315.330553 
L 954.837319 314.121013 
L 954.223654 313.333467 
L 950.111187 311.946918 
L 944.615444 310.557113 
L 943.473656 309.979938 
L 943.066755 309.007125 
L 941.505892 308.226381 
L 936.85972 306.927946 
L 936.469747 306.405316 
L 931.208434 305.628373 
L 929.987613 305.256653 
L 927.913488 305.002055 
L 918.966845 305.38208 
L 917.790862 305.607739 
L 915.895078 305.660157 
L 917.055158 305.729356 
L 917.363894 305.850716 
L 917.932419 305.936756 
L 914.86525 306.069885 
L 916.215517 306.194495 
L 916.338789 306.345758 
L 913.041797 306.332869 
L 913.640394 306.423936 
L 915.569041 306.733255 
L 915.524399 306.772993 
L 915.902251 306.988367 
L 919.880867 307.462583 
L 918.160657 307.530569 
L 918.160657 307.530569 
" style="fill:none;stroke:#0000ff;stroke-linecap:square;stroke-width:1.75;"/>
    <defs>
     <path d="M 0 -3.5 
L -3.5 3.5 
L 3.5 3.5 
z
" id="m8bc6d30f22"/>
    </defs>
    <g clip-path="url(#p5a7c884f50)">
     <use style="fill:#0000ff;" x="964.362963" xlink:href="#m8bc6d30f22" y="296.374311"/>
     <use style="fill:#0000ff;" x="963.561808" xlink:href="#m8bc6d30f22" y="296.451296"/>
     <use style="fill:#0000ff;" x="964.081427" xlink:href="#m8bc6d30f22" y="296.500197"/>
     <use style="fill:#0000ff;" x="962.068681" xlink:href="#m8bc6d30f22" y="296.514601"/>
     <use style="fill:#0000ff;" x="963.417053" xlink:href="#m8bc6d30f22" y="296.516471"/>
     <use style="fill:#0000ff;" x="958.748002" xlink:href="#m8bc6d30f22" y="296.414777"/>
     <use style="fill:#0000ff;" x="960.257709" xlink:href="#m8bc6d30f22" y="296.555857"/>
     <use style="fill:#0000ff;" x="962.232137" xlink:href="#m8bc6d30f22" y="296.694767"/>
     <use style="fill:#0000ff;" x="962.759964" xlink:href="#m8bc6d30f22" y="297.089707"/>
     <use style="fill:#0000ff;" x="964.124277" xlink:href="#m8bc6d30f22" y="297.693932"/>
     <use style="fill:#0000ff;" x="970.632122" xlink:href="#m8bc6d30f22" y="298.556432"/>
     <use style="fill:#0000ff;" x="972.2286" xlink:href="#m8bc6d30f22" y="299.792286"/>
     <use style="fill:#0000ff;" x="977.517034" xlink:href="#m8bc6d30f22" y="301.344983"/>
     <use style="fill:#0000ff;" x="984.538164" xlink:href="#m8bc6d30f22" y="303.048801"/>
     <use style="fill:#0000ff;" x="991.187228" xlink:href="#m8bc6d30f22" y="304.881239"/>
     <use style="fill:#0000ff;" x="996.654624" xlink:href="#m8bc6d30f22" y="306.672677"/>
     <use style="fill:#0000ff;" x="1000.107402" xlink:href="#m8bc6d30f22" y="308.403446"/>
     <use style="fill:#0000ff;" x="1007.314082" xlink:href="#m8bc6d30f22" y="310.409276"/>
     <use style="fill:#0000ff;" x="1014.06132" xlink:href="#m8bc6d30f22" y="312.844773"/>
     <use style="fill:#0000ff;" x="1017.883934" xlink:href="#m8bc6d30f22" y="314.829206"/>
     <use style="fill:#0000ff;" x="1022.748135" xlink:href="#m8bc6d30f22" y="317.169615"/>
     <use style="fill:#0000ff;" x="1028.295279" xlink:href="#m8bc6d30f22" y="319.638162"/>
     <use style="fill:#0000ff;" x="1027.039766" xlink:href="#m8bc6d30f22" y="322.123268"/>
     <use style="fill:#0000ff;" x="1033.971302" xlink:href="#m8bc6d30f22" y="324.725226"/>
     <use style="fill:#0000ff;" x="1038.707147" xlink:href="#m8bc6d30f22" y="327.439283"/>
     <use style="fill:#0000ff;" x="1043.809546" xlink:href="#m8bc6d30f22" y="330.256036"/>
     <use style="fill:#0000ff;" x="1046.566656" xlink:href="#m8bc6d30f22" y="333.127376"/>
     <use style="fill:#0000ff;" x="1048.07212" xlink:href="#m8bc6d30f22" y="335.029413"/>
     <use style="fill:#0000ff;" x="1049.163461" xlink:href="#m8bc6d30f22" y="336.29837"/>
     <use style="fill:#0000ff;" x="1049.513843" xlink:href="#m8bc6d30f22" y="337.946259"/>
     <use style="fill:#0000ff;" x="1048.486739" xlink:href="#m8bc6d30f22" y="339.242836"/>
     <use style="fill:#0000ff;" x="1047.602028" xlink:href="#m8bc6d30f22" y="340.392724"/>
     <use style="fill:#0000ff;" x="1045.086615" xlink:href="#m8bc6d30f22" y="340.940473"/>
     <use style="fill:#0000ff;" x="1041.474209" xlink:href="#m8bc6d30f22" y="341.906172"/>
     <use style="fill:#0000ff;" x="1041.802186" xlink:href="#m8bc6d30f22" y="343.082048"/>
     <use style="fill:#0000ff;" x="1040.454477" xlink:href="#m8bc6d30f22" y="344.243997"/>
     <use style="fill:#0000ff;" x="1041.027453" xlink:href="#m8bc6d30f22" y="345.452143"/>
     <use style="fill:#0000ff;" x="1039.455944" xlink:href="#m8bc6d30f22" y="346.561092"/>
     <use style="fill:#0000ff;" x="1039.256103" xlink:href="#m8bc6d30f22" y="347.541223"/>
     <use style="fill:#0000ff;" x="1042.327626" xlink:href="#m8bc6d30f22" y="348.537692"/>
     <use style="fill:#0000ff;" x="1041.699437" xlink:href="#m8bc6d30f22" y="349.869714"/>
     <use style="fill:#0000ff;" x="1045.15005" xlink:href="#m8bc6d30f22" y="352.221526"/>
     <use style="fill:#0000ff;" x="1045.15005" xlink:href="#m8bc6d30f22" y="352.221526"/>
     <use style="fill:#0000ff;" x="1049.307907" xlink:href="#m8bc6d30f22" y="353.509348"/>
     <use style="fill:#0000ff;" x="1050.967882" xlink:href="#m8bc6d30f22" y="355.135873"/>
     <use style="fill:#0000ff;" x="1051.603749" xlink:href="#m8bc6d30f22" y="356.499363"/>
     <use style="fill:#0000ff;" x="1053.187755" xlink:href="#m8bc6d30f22" y="357.84321"/>
     <use style="fill:#0000ff;" x="1055.418564" xlink:href="#m8bc6d30f22" y="359.568275"/>
     <use style="fill:#0000ff;" x="1059.492218" xlink:href="#m8bc6d30f22" y="361.035488"/>
     <use style="fill:#0000ff;" x="1063.572697" xlink:href="#m8bc6d30f22" y="362.604851"/>
     <use style="fill:#0000ff;" x="1068.882185" xlink:href="#m8bc6d30f22" y="364.238941"/>
     <use style="fill:#0000ff;" x="1067.656188" xlink:href="#m8bc6d30f22" y="365.652525"/>
     <use style="fill:#0000ff;" x="1066.365903" xlink:href="#m8bc6d30f22" y="366.913342"/>
     <use style="fill:#0000ff;" x="1075.717067" xlink:href="#m8bc6d30f22" y="368.828008"/>
     <use style="fill:#0000ff;" x="1077.148938" xlink:href="#m8bc6d30f22" y="370.357145"/>
     <use style="fill:#0000ff;" x="1079.349063" xlink:href="#m8bc6d30f22" y="371.672174"/>
     <use style="fill:#0000ff;" x="1080.91099" xlink:href="#m8bc6d30f22" y="373.249263"/>
     <use style="fill:#0000ff;" x="1083.806307" xlink:href="#m8bc6d30f22" y="375.002647"/>
     <use style="fill:#0000ff;" x="1091.808011" xlink:href="#m8bc6d30f22" y="377.110328"/>
     <use style="fill:#0000ff;" x="1094.193046" xlink:href="#m8bc6d30f22" y="379.521631"/>
     <use style="fill:#0000ff;" x="1099.685146" xlink:href="#m8bc6d30f22" y="381.882666"/>
     <use style="fill:#0000ff;" x="1106.53368" xlink:href="#m8bc6d30f22" y="384.519559"/>
     <use style="fill:#0000ff;" x="1108.063155" xlink:href="#m8bc6d30f22" y="387.124026"/>
     <use style="fill:#0000ff;" x="1116.043901" xlink:href="#m8bc6d30f22" y="389.708686"/>
     <use style="fill:#0000ff;" x="1121.820392" xlink:href="#m8bc6d30f22" y="392.088958"/>
     <use style="fill:#0000ff;" x="1129.879809" xlink:href="#m8bc6d30f22" y="394.323091"/>
     <use style="fill:#0000ff;" x="1136.276688" xlink:href="#m8bc6d30f22" y="396.286538"/>
     <use style="fill:#0000ff;" x="1141.51195" xlink:href="#m8bc6d30f22" y="398.025051"/>
     <use style="fill:#0000ff;" x="1141.548837" xlink:href="#m8bc6d30f22" y="399.886966"/>
     <use style="fill:#0000ff;" x="1145.260384" xlink:href="#m8bc6d30f22" y="401.392598"/>
     <use style="fill:#0000ff;" x="1149.258788" xlink:href="#m8bc6d30f22" y="402.662421"/>
     <use style="fill:#0000ff;" x="1152.715705" xlink:href="#m8bc6d30f22" y="403.449743"/>
     <use style="fill:#0000ff;" x="1156.095394" xlink:href="#m8bc6d30f22" y="404.272772"/>
     <use style="fill:#0000ff;" x="1159.419771" xlink:href="#m8bc6d30f22" y="405.084144"/>
     <use style="fill:#0000ff;" x="1162.761506" xlink:href="#m8bc6d30f22" y="405.692669"/>
     <use style="fill:#0000ff;" x="1161.643043" xlink:href="#m8bc6d30f22" y="406.056048"/>
     <use style="fill:#0000ff;" x="1165.127607" xlink:href="#m8bc6d30f22" y="406.490182"/>
     <use style="fill:#0000ff;" x="1166.26809" xlink:href="#m8bc6d30f22" y="406.730771"/>
     <use style="fill:#0000ff;" x="1164.16661" xlink:href="#m8bc6d30f22" y="406.82282"/>
     <use style="fill:#0000ff;" x="1164.288213" xlink:href="#m8bc6d30f22" y="406.91256"/>
     <use style="fill:#0000ff;" x="1164.997492" xlink:href="#m8bc6d30f22" y="407.01235"/>
     <use style="fill:#0000ff;" x="1166.988803" xlink:href="#m8bc6d30f22" y="407.215274"/>
     <use style="fill:#0000ff;" x="1168.918934" xlink:href="#m8bc6d30f22" y="407.682063"/>
     <use style="fill:#0000ff;" x="1174.374387" xlink:href="#m8bc6d30f22" y="408.067197"/>
     <use style="fill:#0000ff;" x="1178.613415" xlink:href="#m8bc6d30f22" y="408.334697"/>
     <use style="fill:#0000ff;" x="1182.544893" xlink:href="#m8bc6d30f22" y="408.704695"/>
     <use style="fill:#0000ff;" x="1188.640955" xlink:href="#m8bc6d30f22" y="409.286088"/>
     <use style="fill:#0000ff;" x="1192.587905" xlink:href="#m8bc6d30f22" y="409.724126"/>
     <use style="fill:#0000ff;" x="1196.957247" xlink:href="#m8bc6d30f22" y="410.262869"/>
     <use style="fill:#0000ff;" x="1203.345318" xlink:href="#m8bc6d30f22" y="411.143763"/>
     <use style="fill:#0000ff;" x="1208.538473" xlink:href="#m8bc6d30f22" y="412.150196"/>
     <use style="fill:#0000ff;" x="1213.262269" xlink:href="#m8bc6d30f22" y="413.278024"/>
     <use style="fill:#0000ff;" x="1221.568647" xlink:href="#m8bc6d30f22" y="414.489565"/>
     <use style="fill:#0000ff;" x="1227.172608" xlink:href="#m8bc6d30f22" y="415.663925"/>
     <use style="fill:#0000ff;" x="1231.83957" xlink:href="#m8bc6d30f22" y="417.379356"/>
     <use style="fill:#0000ff;" x="1240.866691" xlink:href="#m8bc6d30f22" y="419.170285"/>
     <use style="fill:#0000ff;" x="1252.586311" xlink:href="#m8bc6d30f22" y="421.110278"/>
     <use style="fill:#0000ff;" x="1258.41774" xlink:href="#m8bc6d30f22" y="422.704909"/>
     <use style="fill:#0000ff;" x="1265.986955" xlink:href="#m8bc6d30f22" y="424.485433"/>
     <use style="fill:#0000ff;" x="1276.863689" xlink:href="#m8bc6d30f22" y="426.623584"/>
     <use style="fill:#0000ff;" x="1283.147816" xlink:href="#m8bc6d30f22" y="428.662282"/>
     <use style="fill:#0000ff;" x="1292.235985" xlink:href="#m8bc6d30f22" y="430.622989"/>
     <use style="fill:#0000ff;" x="1299.517769" xlink:href="#m8bc6d30f22" y="432.301631"/>
     <use style="fill:#0000ff;" x="1303.473572" xlink:href="#m8bc6d30f22" y="434.232501"/>
     <use style="fill:#0000ff;" x="1308.498763" xlink:href="#m8bc6d30f22" y="436.06384"/>
     <use style="fill:#0000ff;" x="1315.525319" xlink:href="#m8bc6d30f22" y="438.240705"/>
     <use style="fill:#0000ff;" x="1320.732157" xlink:href="#m8bc6d30f22" y="440.112118"/>
     <use style="fill:#0000ff;" x="1325.533109" xlink:href="#m8bc6d30f22" y="442.367889"/>
     <use style="fill:#0000ff;" x="1333.938625" xlink:href="#m8bc6d30f22" y="444.388471"/>
     <use style="fill:#0000ff;" x="1337.112013" xlink:href="#m8bc6d30f22" y="446.208155"/>
     <use style="fill:#0000ff;" x="1338.012497" xlink:href="#m8bc6d30f22" y="447.650671"/>
     <use style="fill:#0000ff;" x="1339.515255" xlink:href="#m8bc6d30f22" y="448.870828"/>
     <use style="fill:#0000ff;" x="1341.035788" xlink:href="#m8bc6d30f22" y="449.727288"/>
     <use style="fill:#0000ff;" x="1339.511041" xlink:href="#m8bc6d30f22" y="450.07028"/>
     <use style="fill:#0000ff;" x="1337.473687" xlink:href="#m8bc6d30f22" y="450.273986"/>
     <use style="fill:#0000ff;" x="1332.579318" xlink:href="#m8bc6d30f22" y="450.266881"/>
     <use style="fill:#0000ff;" x="1331.589605" xlink:href="#m8bc6d30f22" y="450.254449"/>
     <use style="fill:#0000ff;" x="1329.474357" xlink:href="#m8bc6d30f22" y="450.374496"/>
     <use style="fill:#0000ff;" x="1322.184867" xlink:href="#m8bc6d30f22" y="450.361942"/>
     <use style="fill:#0000ff;" x="1318.574985" xlink:href="#m8bc6d30f22" y="450.553894"/>
     <use style="fill:#0000ff;" x="1316.315024" xlink:href="#m8bc6d30f22" y="450.474869"/>
     <use style="fill:#0000ff;" x="1312.895123" xlink:href="#m8bc6d30f22" y="450.561986"/>
     <use style="fill:#0000ff;" x="1308.849727" xlink:href="#m8bc6d30f22" y="450.571747"/>
     <use style="fill:#0000ff;" x="1308.85521" xlink:href="#m8bc6d30f22" y="450.390446"/>
     <use style="fill:#0000ff;" x="1303.164517" xlink:href="#m8bc6d30f22" y="450.097907"/>
     <use style="fill:#0000ff;" x="1301.610327" xlink:href="#m8bc6d30f22" y="450.062604"/>
     <use style="fill:#0000ff;" x="1303.115565" xlink:href="#m8bc6d30f22" y="450.085436"/>
     <use style="fill:#0000ff;" x="1300.255781" xlink:href="#m8bc6d30f22" y="450.066023"/>
     <use style="fill:#0000ff;" x="1297.061359" xlink:href="#m8bc6d30f22" y="449.936401"/>
     <use style="fill:#0000ff;" x="1295.055348" xlink:href="#m8bc6d30f22" y="449.754458"/>
     <use style="fill:#0000ff;" x="1294.416145" xlink:href="#m8bc6d30f22" y="449.950577"/>
     <use style="fill:#0000ff;" x="1288.374167" xlink:href="#m8bc6d30f22" y="449.708741"/>
     <use style="fill:#0000ff;" x="1290.523354" xlink:href="#m8bc6d30f22" y="449.57114"/>
     <use style="fill:#0000ff;" x="1285.19662" xlink:href="#m8bc6d30f22" y="449.145644"/>
     <use style="fill:#0000ff;" x="1287.613724" xlink:href="#m8bc6d30f22" y="448.838255"/>
     <use style="fill:#0000ff;" x="1284.908732" xlink:href="#m8bc6d30f22" y="448.459202"/>
     <use style="fill:#0000ff;" x="1281.680729" xlink:href="#m8bc6d30f22" y="447.693952"/>
     <use style="fill:#0000ff;" x="1279.642374" xlink:href="#m8bc6d30f22" y="446.784338"/>
     <use style="fill:#0000ff;" x="1280.490284" xlink:href="#m8bc6d30f22" y="445.545361"/>
     <use style="fill:#0000ff;" x="1276.719729" xlink:href="#m8bc6d30f22" y="444.268048"/>
     <use style="fill:#0000ff;" x="1274.03136" xlink:href="#m8bc6d30f22" y="443.055202"/>
     <use style="fill:#0000ff;" x="1271.002213" xlink:href="#m8bc6d30f22" y="441.565112"/>
     <use style="fill:#0000ff;" x="1268.7317" xlink:href="#m8bc6d30f22" y="440.305682"/>
     <use style="fill:#0000ff;" x="1271.457558" xlink:href="#m8bc6d30f22" y="439.047094"/>
     <use style="fill:#0000ff;" x="1269.893834" xlink:href="#m8bc6d30f22" y="437.981949"/>
     <use style="fill:#0000ff;" x="1265.991322" xlink:href="#m8bc6d30f22" y="436.916641"/>
     <use style="fill:#0000ff;" x="1267.059021" xlink:href="#m8bc6d30f22" y="436.185454"/>
     <use style="fill:#0000ff;" x="1265.060843" xlink:href="#m8bc6d30f22" y="435.437966"/>
     <use style="fill:#0000ff;" x="1260.379603" xlink:href="#m8bc6d30f22" y="434.534976"/>
     <use style="fill:#0000ff;" x="1255.904182" xlink:href="#m8bc6d30f22" y="433.544402"/>
     <use style="fill:#0000ff;" x="1252.183076" xlink:href="#m8bc6d30f22" y="432.545455"/>
     <use style="fill:#0000ff;" x="1245.351024" xlink:href="#m8bc6d30f22" y="431.559023"/>
     <use style="fill:#0000ff;" x="1241.152555" xlink:href="#m8bc6d30f22" y="430.79924"/>
     <use style="fill:#0000ff;" x="1243.075352" xlink:href="#m8bc6d30f22" y="429.939193"/>
     <use style="fill:#0000ff;" x="1240.221489" xlink:href="#m8bc6d30f22" y="429.180661"/>
     <use style="fill:#0000ff;" x="1239.211444" xlink:href="#m8bc6d30f22" y="428.555257"/>
     <use style="fill:#0000ff;" x="1234.353191" xlink:href="#m8bc6d30f22" y="428.012016"/>
     <use style="fill:#0000ff;" x="1233.129524" xlink:href="#m8bc6d30f22" y="427.275872"/>
     <use style="fill:#0000ff;" x="1234.79967" xlink:href="#m8bc6d30f22" y="426.840508"/>
     <use style="fill:#0000ff;" x="1231.260079" xlink:href="#m8bc6d30f22" y="426.204129"/>
     <use style="fill:#0000ff;" x="1228.298495" xlink:href="#m8bc6d30f22" y="425.75614"/>
     <use style="fill:#0000ff;" x="1227.988383" xlink:href="#m8bc6d30f22" y="425.239373"/>
     <use style="fill:#0000ff;" x="1222.250203" xlink:href="#m8bc6d30f22" y="424.58051"/>
     <use style="fill:#0000ff;" x="1218.59844" xlink:href="#m8bc6d30f22" y="424.057881"/>
     <use style="fill:#0000ff;" x="1215.132602" xlink:href="#m8bc6d30f22" y="423.447097"/>
     <use style="fill:#0000ff;" x="1213.605445" xlink:href="#m8bc6d30f22" y="423.012932"/>
     <use style="fill:#0000ff;" x="1207.694574" xlink:href="#m8bc6d30f22" y="422.430817"/>
     <use style="fill:#0000ff;" x="1201.396299" xlink:href="#m8bc6d30f22" y="421.486793"/>
     <use style="fill:#0000ff;" x="1196.750985" xlink:href="#m8bc6d30f22" y="420.726782"/>
     <use style="fill:#0000ff;" x="1186.808514" xlink:href="#m8bc6d30f22" y="419.626785"/>
     <use style="fill:#0000ff;" x="1183.206147" xlink:href="#m8bc6d30f22" y="418.847445"/>
     <use style="fill:#0000ff;" x="1178.06887" xlink:href="#m8bc6d30f22" y="417.888877"/>
     <use style="fill:#0000ff;" x="1175.60622" xlink:href="#m8bc6d30f22" y="416.662018"/>
     <use style="fill:#0000ff;" x="1168.149409" xlink:href="#m8bc6d30f22" y="415.553047"/>
     <use style="fill:#0000ff;" x="1165.582298" xlink:href="#m8bc6d30f22" y="414.736012"/>
     <use style="fill:#0000ff;" x="1157.964652" xlink:href="#m8bc6d30f22" y="413.742511"/>
     <use style="fill:#0000ff;" x="1154.462269" xlink:href="#m8bc6d30f22" y="413.049694"/>
     <use style="fill:#0000ff;" x="1150.570414" xlink:href="#m8bc6d30f22" y="412.115007"/>
     <use style="fill:#0000ff;" x="1147.40086" xlink:href="#m8bc6d30f22" y="411.343228"/>
     <use style="fill:#0000ff;" x="1144.027486" xlink:href="#m8bc6d30f22" y="410.651123"/>
     <use style="fill:#0000ff;" x="1139.747664" xlink:href="#m8bc6d30f22" y="410.039246"/>
     <use style="fill:#0000ff;" x="1140.142146" xlink:href="#m8bc6d30f22" y="409.393927"/>
     <use style="fill:#0000ff;" x="1136.001451" xlink:href="#m8bc6d30f22" y="408.666037"/>
     <use style="fill:#0000ff;" x="1135.636296" xlink:href="#m8bc6d30f22" y="408.286914"/>
     <use style="fill:#0000ff;" x="1137.591705" xlink:href="#m8bc6d30f22" y="407.931024"/>
     <use style="fill:#0000ff;" x="1135.061085" xlink:href="#m8bc6d30f22" y="407.275732"/>
     <use style="fill:#0000ff;" x="1134.8103" xlink:href="#m8bc6d30f22" y="406.506916"/>
     <use style="fill:#0000ff;" x="1134.285472" xlink:href="#m8bc6d30f22" y="405.685704"/>
     <use style="fill:#0000ff;" x="1138.040091" xlink:href="#m8bc6d30f22" y="404.945524"/>
     <use style="fill:#0000ff;" x="1138.59987" xlink:href="#m8bc6d30f22" y="404.650827"/>
     <use style="fill:#0000ff;" x="1136.766879" xlink:href="#m8bc6d30f22" y="404.266439"/>
     <use style="fill:#0000ff;" x="1140.168228" xlink:href="#m8bc6d30f22" y="403.667013"/>
     <use style="fill:#0000ff;" x="1140.15664" xlink:href="#m8bc6d30f22" y="403.180065"/>
     <use style="fill:#0000ff;" x="1139.417699" xlink:href="#m8bc6d30f22" y="402.644466"/>
     <use style="fill:#0000ff;" x="1138.817061" xlink:href="#m8bc6d30f22" y="401.883897"/>
     <use style="fill:#0000ff;" x="1138.729941" xlink:href="#m8bc6d30f22" y="400.91878"/>
     <use style="fill:#0000ff;" x="1136.122875" xlink:href="#m8bc6d30f22" y="400.205108"/>
     <use style="fill:#0000ff;" x="1137.351745" xlink:href="#m8bc6d30f22" y="399.711903"/>
     <use style="fill:#0000ff;" x="1137.412241" xlink:href="#m8bc6d30f22" y="398.796226"/>
     <use style="fill:#0000ff;" x="1138.052318" xlink:href="#m8bc6d30f22" y="398.163672"/>
     <use style="fill:#0000ff;" x="1135.854496" xlink:href="#m8bc6d30f22" y="397.44428"/>
     <use style="fill:#0000ff;" x="1139.525279" xlink:href="#m8bc6d30f22" y="397.02892"/>
     <use style="fill:#0000ff;" x="1140.012682" xlink:href="#m8bc6d30f22" y="396.477276"/>
     <use style="fill:#0000ff;" x="1137.981921" xlink:href="#m8bc6d30f22" y="395.547437"/>
     <use style="fill:#0000ff;" x="1136.744747" xlink:href="#m8bc6d30f22" y="394.900854"/>
     <use style="fill:#0000ff;" x="1131.459903" xlink:href="#m8bc6d30f22" y="393.947741"/>
     <use style="fill:#0000ff;" x="1127.23629" xlink:href="#m8bc6d30f22" y="392.873379"/>
     <use style="fill:#0000ff;" x="1127.691387" xlink:href="#m8bc6d30f22" y="391.860032"/>
     <use style="fill:#0000ff;" x="1120.573665" xlink:href="#m8bc6d30f22" y="390.327822"/>
     <use style="fill:#0000ff;" x="1118.524737" xlink:href="#m8bc6d30f22" y="389.053291"/>
     <use style="fill:#0000ff;" x="1112.685249" xlink:href="#m8bc6d30f22" y="387.594324"/>
     <use style="fill:#0000ff;" x="1107.484072" xlink:href="#m8bc6d30f22" y="386.094219"/>
     <use style="fill:#0000ff;" x="1106.34249" xlink:href="#m8bc6d30f22" y="384.664824"/>
     <use style="fill:#0000ff;" x="1102.949035" xlink:href="#m8bc6d30f22" y="383.370671"/>
     <use style="fill:#0000ff;" x="1095.567572" xlink:href="#m8bc6d30f22" y="381.852635"/>
     <use style="fill:#0000ff;" x="1095.116381" xlink:href="#m8bc6d30f22" y="381.109864"/>
     <use style="fill:#0000ff;" x="1093.629531" xlink:href="#m8bc6d30f22" y="380.252335"/>
     <use style="fill:#0000ff;" x="1088.282999" xlink:href="#m8bc6d30f22" y="378.741826"/>
     <use style="fill:#0000ff;" x="1084.740949" xlink:href="#m8bc6d30f22" y="377.708776"/>
     <use style="fill:#0000ff;" x="1080.546819" xlink:href="#m8bc6d30f22" y="376.347533"/>
     <use style="fill:#0000ff;" x="1077.189224" xlink:href="#m8bc6d30f22" y="374.911032"/>
     <use style="fill:#0000ff;" x="1073.586503" xlink:href="#m8bc6d30f22" y="373.200305"/>
     <use style="fill:#0000ff;" x="1069.081269" xlink:href="#m8bc6d30f22" y="371.586446"/>
     <use style="fill:#0000ff;" x="1065.107384" xlink:href="#m8bc6d30f22" y="369.760922"/>
     <use style="fill:#0000ff;" x="1060.596954" xlink:href="#m8bc6d30f22" y="367.824061"/>
     <use style="fill:#0000ff;" x="1056.41703" xlink:href="#m8bc6d30f22" y="365.572552"/>
     <use style="fill:#0000ff;" x="1053.247766" xlink:href="#m8bc6d30f22" y="363.209023"/>
     <use style="fill:#0000ff;" x="1048.835238" xlink:href="#m8bc6d30f22" y="360.931375"/>
     <use style="fill:#0000ff;" x="1044.956983" xlink:href="#m8bc6d30f22" y="359.103964"/>
     <use style="fill:#0000ff;" x="1036.007791" xlink:href="#m8bc6d30f22" y="356.675447"/>
     <use style="fill:#0000ff;" x="1033.213219" xlink:href="#m8bc6d30f22" y="354.485745"/>
     <use style="fill:#0000ff;" x="1025.200108" xlink:href="#m8bc6d30f22" y="352.199255"/>
     <use style="fill:#0000ff;" x="1022.313312" xlink:href="#m8bc6d30f22" y="350.029764"/>
     <use style="fill:#0000ff;" x="1016.960036" xlink:href="#m8bc6d30f22" y="347.399847"/>
     <use style="fill:#0000ff;" x="1013.249286" xlink:href="#m8bc6d30f22" y="344.995849"/>
     <use style="fill:#0000ff;" x="1009.802704" xlink:href="#m8bc6d30f22" y="342.255951"/>
     <use style="fill:#0000ff;" x="1009.98469" xlink:href="#m8bc6d30f22" y="339.799176"/>
     <use style="fill:#0000ff;" x="1008.291792" xlink:href="#m8bc6d30f22" y="337.935419"/>
     <use style="fill:#0000ff;" x="1010.859676" xlink:href="#m8bc6d30f22" y="336.310168"/>
     <use style="fill:#0000ff;" x="1010.224156" xlink:href="#m8bc6d30f22" y="335.234499"/>
     <use style="fill:#0000ff;" x="1006.638356" xlink:href="#m8bc6d30f22" y="333.716717"/>
     <use style="fill:#0000ff;" x="1010.291253" xlink:href="#m8bc6d30f22" y="332.771377"/>
     <use style="fill:#0000ff;" x="1011.318452" xlink:href="#m8bc6d30f22" y="331.845418"/>
     <use style="fill:#0000ff;" x="1013.337421" xlink:href="#m8bc6d30f22" y="331.258821"/>
     <use style="fill:#0000ff;" x="1013.046941" xlink:href="#m8bc6d30f22" y="330.565488"/>
     <use style="fill:#0000ff;" x="1010.942125" xlink:href="#m8bc6d30f22" y="330.101926"/>
     <use style="fill:#0000ff;" x="1009.014453" xlink:href="#m8bc6d30f22" y="329.482001"/>
     <use style="fill:#0000ff;" x="1004.856735" xlink:href="#m8bc6d30f22" y="328.673725"/>
     <use style="fill:#0000ff;" x="1005.114188" xlink:href="#m8bc6d30f22" y="328.011913"/>
     <use style="fill:#0000ff;" x="998.30523" xlink:href="#m8bc6d30f22" y="326.717899"/>
     <use style="fill:#0000ff;" x="994.244318" xlink:href="#m8bc6d30f22" y="325.518303"/>
     <use style="fill:#0000ff;" x="992.067629" xlink:href="#m8bc6d30f22" y="324.447976"/>
     <use style="fill:#0000ff;" x="991.098144" xlink:href="#m8bc6d30f22" y="323.274083"/>
     <use style="fill:#0000ff;" x="986.842232" xlink:href="#m8bc6d30f22" y="321.897334"/>
     <use style="fill:#0000ff;" x="981.484449" xlink:href="#m8bc6d30f22" y="320.722075"/>
     <use style="fill:#0000ff;" x="976.944726" xlink:href="#m8bc6d30f22" y="319.35275"/>
     <use style="fill:#0000ff;" x="975.229514" xlink:href="#m8bc6d30f22" y="318.004098"/>
     <use style="fill:#0000ff;" x="965.955667" xlink:href="#m8bc6d30f22" y="316.607537"/>
     <use style="fill:#0000ff;" x="960.526973" xlink:href="#m8bc6d30f22" y="315.330553"/>
     <use style="fill:#0000ff;" x="954.837319" xlink:href="#m8bc6d30f22" y="314.121013"/>
     <use style="fill:#0000ff;" x="954.223654" xlink:href="#m8bc6d30f22" y="313.333467"/>
     <use style="fill:#0000ff;" x="950.111187" xlink:href="#m8bc6d30f22" y="311.946918"/>
     <use style="fill:#0000ff;" x="944.615444" xlink:href="#m8bc6d30f22" y="310.557113"/>
     <use style="fill:#0000ff;" x="943.473656" xlink:href="#m8bc6d30f22" y="309.979938"/>
     <use style="fill:#0000ff;" x="943.066755" xlink:href="#m8bc6d30f22" y="309.007125"/>
     <use style="fill:#0000ff;" x="941.505892" xlink:href="#m8bc6d30f22" y="308.226381"/>
     <use style="fill:#0000ff;" x="936.85972" xlink:href="#m8bc6d30f22" y="306.927946"/>
     <use style="fill:#0000ff;" x="936.469747" xlink:href="#m8bc6d30f22" y="306.405316"/>
     <use style="fill:#0000ff;" x="931.208434" xlink:href="#m8bc6d30f22" y="305.628373"/>
     <use style="fill:#0000ff;" x="929.987613" xlink:href="#m8bc6d30f22" y="305.256653"/>
     <use style="fill:#0000ff;" x="927.913488" xlink:href="#m8bc6d30f22" y="305.002055"/>
     <use style="fill:#0000ff;" x="926.447258" xlink:href="#m8bc6d30f22" y="305.07226"/>
     <use style="fill:#0000ff;" x="921.671894" xlink:href="#m8bc6d30f22" y="305.215965"/>
     <use style="fill:#0000ff;" x="920.075263" xlink:href="#m8bc6d30f22" y="305.314094"/>
     <use style="fill:#0000ff;" x="918.966845" xlink:href="#m8bc6d30f22" y="305.38208"/>
     <use style="fill:#0000ff;" x="917.790862" xlink:href="#m8bc6d30f22" y="305.607739"/>
     <use style="fill:#0000ff;" x="915.895078" xlink:href="#m8bc6d30f22" y="305.660157"/>
     <use style="fill:#0000ff;" x="917.055158" xlink:href="#m8bc6d30f22" y="305.729356"/>
     <use style="fill:#0000ff;" x="917.363894" xlink:href="#m8bc6d30f22" y="305.850716"/>
     <use style="fill:#0000ff;" x="917.932419" xlink:href="#m8bc6d30f22" y="305.936756"/>
     <use style="fill:#0000ff;" x="914.86525" xlink:href="#m8bc6d30f22" y="306.069885"/>
     <use style="fill:#0000ff;" x="916.215517" xlink:href="#m8bc6d30f22" y="306.194495"/>
     <use style="fill:#0000ff;" x="916.338789" xlink:href="#m8bc6d30f22" y="306.345758"/>
     <use style="fill:#0000ff;" x="913.041797" xlink:href="#m8bc6d30f22" y="306.332869"/>
     <use style="fill:#0000ff;" x="913.640394" xlink:href="#m8bc6d30f22" y="306.423936"/>
     <use style="fill:#0000ff;" x="914.586977" xlink:href="#m8bc6d30f22" y="306.563104"/>
     <use style="fill:#0000ff;" x="915.36343" xlink:href="#m8bc6d30f22" y="306.690931"/>
     <use style="fill:#0000ff;" x="915.569041" xlink:href="#m8bc6d30f22" y="306.733255"/>
     <use style="fill:#0000ff;" x="915.524399" xlink:href="#m8bc6d30f22" y="306.772993"/>
     <use style="fill:#0000ff;" x="915.902251" xlink:href="#m8bc6d30f22" y="306.988367"/>
     <use style="fill:#0000ff;" x="918.960626" xlink:href="#m8bc6d30f22" y="307.307972"/>
     <use style="fill:#0000ff;" x="919.880867" xlink:href="#m8bc6d30f22" y="307.462583"/>
     <use style="fill:#0000ff;" x="918.51372" xlink:href="#m8bc6d30f22" y="307.442324"/>
     <use style="fill:#0000ff;" x="918.160657" xlink:href="#m8bc6d30f22" y="307.530569"/>
     <use style="fill:#0000ff;" x="918.160657" xlink:href="#m8bc6d30f22" y="307.530569"/>
     <use style="fill:#0000ff;" x="918.160657" xlink:href="#m8bc6d30f22" y="307.530569"/>
    </g>
   </g>
   <g id="legend_1">
    <g id="patch_6">
     <path d="M 1359.4175 165.0225 
L 1503.5 165.0225 
Q 1506.7 165.0225 1506.7 161.8225 
L 1506.7 140.8 
Q 1506.7 137.6 1503.5 137.6 
L 1359.4175 137.6 
Q 1356.2175 137.6 1356.2175 140.8 
L 1356.2175 161.8225 
Q 1356.2175 165.0225 1359.4175 165.0225 
z
" style="fill:#ffffff;opacity:0.8;stroke:#cccccc;stroke-linejoin:miter;stroke-width:0.3;"/>
    </g>
    <g id="line2d_28">
     <path d="M 1362.6175 149.6 
L 1394.6175 149.6 
" style="fill:none;stroke:#0000ff;stroke-linecap:square;stroke-width:1.75;"/>
    </g>
    <g id="line2d_29">
     <g>
      <use style="fill:#0000ff;" x="1378.6175" xlink:href="#m8bc6d30f22" y="149.6"/>
     </g>
    </g>
    <g id="text_27">
     <!-- Local Position -->
     <g transform="translate(1407.4175 155.2)scale(0.16 -0.16)">
      <defs>
       <path d="M 57.328125 18.3125 
L 58.9375 17.96875 
L 53.265625 0 
L 2 0 
L 2 1.8125 
L 4.5 1.8125 
Q 8.6875 1.8125 10.5 4.546875 
Q 11.53125 6.109375 11.53125 11.765625 
L 11.53125 54.5 
Q 11.53125 60.6875 10.15625 62.25 
Q 8.25 64.40625 4.5 64.40625 
L 2 64.40625 
L 2 66.21875 
L 31.984375 66.21875 
L 31.984375 64.40625 
Q 26.703125 64.453125 24.578125 63.421875 
Q 22.46875 62.40625 21.6875 60.84375 
Q 20.90625 59.28125 20.90625 53.375 
L 20.90625 11.765625 
Q 20.90625 7.71875 21.6875 6.203125 
Q 22.265625 5.171875 23.484375 4.6875 
Q 24.703125 4.203125 31.109375 4.203125 
L 35.9375 4.203125 
Q 43.5625 4.203125 46.625 5.328125 
Q 49.703125 6.453125 52.234375 9.296875 
Q 54.78125 12.15625 57.328125 18.3125 
z
" id="TimesNewRomanPSMT-76"/>
       <path d="M 18.5 69.4375 
L 18.5 10.109375 
Q 18.5 5.90625 19.109375 4.53125 
Q 19.734375 3.171875 21 2.46875 
Q 22.265625 1.765625 25.734375 1.765625 
L 25.734375 0 
L 3.8125 0 
L 3.8125 1.765625 
Q 6.890625 1.765625 8 2.390625 
Q 9.125 3.03125 9.765625 4.484375 
Q 10.40625 5.953125 10.40625 10.109375 
L 10.40625 50.734375 
Q 10.40625 58.296875 10.0625 60.03125 
Q 9.71875 61.765625 8.953125 62.390625 
Q 8.203125 63.03125 7.03125 63.03125 
Q 5.765625 63.03125 3.8125 62.25 
L 2.984375 63.96875 
L 16.3125 69.4375 
z
" id="TimesNewRomanPSMT-108"/>
       <path d="M 20.515625 31 
L 20.515625 11.71875 
Q 20.515625 5.46875 21.875 3.953125 
Q 23.734375 1.8125 27.484375 1.8125 
L 30.03125 1.8125 
L 30.03125 0 
L 1.65625 0 
L 1.65625 1.8125 
L 4.15625 1.8125 
Q 8.34375 1.8125 10.15625 4.546875 
Q 11.140625 6.0625 11.140625 11.71875 
L 11.140625 54.5 
Q 11.140625 60.75 9.8125 62.25 
Q 7.90625 64.40625 4.15625 64.40625 
L 1.65625 64.40625 
L 1.65625 66.21875 
L 25.921875 66.21875 
Q 34.8125 66.21875 39.9375 64.375 
Q 45.0625 62.546875 48.578125 58.203125 
Q 52.09375 53.859375 52.09375 47.90625 
Q 52.09375 39.796875 46.75 34.71875 
Q 41.40625 29.640625 31.640625 29.640625 
Q 29.25 29.640625 26.46875 29.984375 
Q 23.6875 30.328125 20.515625 31 
z
M 20.515625 33.796875 
Q 23.09375 33.296875 25.09375 33.046875 
Q 27.09375 32.8125 28.515625 32.8125 
Q 33.59375 32.8125 37.28125 36.734375 
Q 40.96875 40.671875 40.96875 46.921875 
Q 40.96875 51.21875 39.203125 54.90625 
Q 37.453125 58.59375 34.21875 60.421875 
Q 31 62.25 26.90625 62.25 
Q 24.421875 62.25 20.515625 61.328125 
z
" id="TimesNewRomanPSMT-80"/>
      </defs>
      <use xlink:href="#TimesNewRomanPSMT-76"/>
      <use x="61.083984" xlink:href="#TimesNewRomanPSMT-111"/>
      <use x="111.083984" xlink:href="#TimesNewRomanPSMT-99"/>
      <use x="155.46875" xlink:href="#TimesNewRomanPSMT-97"/>
      <use x="199.853516" xlink:href="#TimesNewRomanPSMT-108"/>
      <use x="227.636719" xlink:href="#TimesNewRomanPSMT-32"/>
      <use x="252.636719" xlink:href="#TimesNewRomanPSMT-80"/>
      <use x="308.251953" xlink:href="#TimesNewRomanPSMT-111"/>
      <use x="358.251953" xlink:href="#TimesNewRomanPSMT-115"/>
      <use x="397.167969" xlink:href="#TimesNewRomanPSMT-105"/>
      <use x="424.951172" xlink:href="#TimesNewRomanPSMT-116"/>
      <use x="452.734375" xlink:href="#TimesNewRomanPSMT-105"/>
      <use x="480.517578" xlink:href="#TimesNewRomanPSMT-111"/>
      <use x="530.517578" xlink:href="#TimesNewRomanPSMT-110"/>
     </g>
    </g>
   </g>
  </g>
 </g>
 <defs>
  <clipPath id="p5a7c884f50">
   <rect height="815.4" width="815.4" x="699.3" y="129.6"/>
  </clipPath>
 </defs>
</svg>
